<svg width="21" height="16" viewBox="0 0 21 16" fill="none" xmlns="http://www.w3.org/2000/svg">
<path d="M15.4 4.50909V4C15.4 1.71818 12.0925 0 7.7 0C3.3075 0 0 1.71818 0 4V7.63636C0 9.53636 2.2925 11.0455 5.6 11.5V12C5.6 14.2818 8.9075 16 13.3 16C17.6925 16 21 14.2818 21 12V8.36364C21 6.48182 18.7775 4.97273 15.4 4.50909ZM5.6 10.0182V7.86364C6.29639 7.95662 6.99789 8.00217 7.7 8C8.40211 8.00217 9.10361 7.95662 9.8 7.86364V10.0182C9.1053 10.1307 8.40307 10.1854 7.7 10.1818C6.99693 10.1854 6.2947 10.1307 5.6 10.0182ZM14 6.35455V7.63636C14 8.4 12.915 9.21818 11.2 9.71818V7.59091C12.3287 7.30909 13.2825 6.88182 14 6.35455ZM1.4 7.63636V6.35455C2.1175 6.88182 3.07125 7.30909 4.2 7.59091V9.71818C2.485 9.21818 1.4 8.4 1.4 7.63636ZM7 12V11.6182L7.7 11.6364C8.04417 11.6364 8.37667 11.6273 8.6975 11.6091C9.0475 11.7364 9.415 11.8455 9.8 11.9455V14.0818C8.085 13.5818 7 12.7636 7 12ZM11.2 14.3818V12.2182C11.8963 12.3131 12.5977 12.3617 13.3 12.3636C14.0021 12.3658 14.7036 12.3203 15.4 12.2273V14.3818C14.0079 14.6 12.5921 14.6 11.2 14.3818ZM16.8 14.0818V11.9545C17.9287 11.6727 18.8825 11.2455 19.6 10.7182V12C19.6 12.7636 18.515 13.5818 16.8 14.0818Z" fill="white"/>
</svg>
