<svg width="34" height="28" viewBox="0 0 34 28" fill="none" xmlns="http://www.w3.org/2000/svg">
<path fill-rule="evenodd" clip-rule="evenodd" d="M33.8859 13.3075H33.8855C33.8366 13.5868 33.7489 13.8639 33.6165 14.1304L27.7992 25.9174C27.0669 27.402 25.2798 28.0054 23.8166 27.2617L5.22064 17.8144C3.75726 17.0715 3.16252 15.2584 3.89559 13.774L9.71339 1.98704C9.84404 1.72218 10.0084 1.48677 10.1983 1.28054L10.1978 1.28004L10.1983 1.27928C10.4487 1.00844 10.743 0.790392 11.064 0.631438L11.0657 0.630432L11.0662 0.629929L11.0724 0.627162L11.0764 0.625402L11.1646 0.583149L11.1674 0.582646C11.4482 0.45714 11.7477 0.375907 12.0536 0.342709L12.0559 0.342206V0.342709C12.6018 0.283609 13.1699 0.375912 13.6958 0.643007L32.2924 10.0902C32.8167 10.3561 33.2287 10.76 33.5086 11.2366H33.5091L33.5101 11.2399C33.6616 11.4984 33.7739 11.7778 33.8443 12.0686L33.846 12.0719L33.8465 12.0729L33.847 12.0751L33.8487 12.0837L33.8497 12.0887L33.8527 12.1023C33.8567 12.1202 33.8605 12.1378 33.8641 12.1559L33.8753 12.2077L33.877 12.214L33.8787 12.2235V12.228C33.9442 12.5794 33.9481 12.9433 33.8859 13.304V13.3075ZM31.4371 13.8445L26.3623 24.1268L23.558 15.5745L31.4371 13.8445ZM17.0348 16.1666C17.1369 16.3892 17.307 16.5599 17.5108 16.6635C17.7163 16.7677 17.9572 16.8039 18.195 16.7508L21.5174 16.0217L24.5537 25.2803L6.6888 16.2052L15.6619 13.1771L17.0348 16.1666ZM30.998 11.7876L18.5668 14.5154L13.1494 2.72006L30.998 11.7876ZM14.7799 11.2557L5.99724 14.2202L11.2516 3.57409L14.7799 11.2557Z" fill="#652696"/>
<path d="M7.30058 23.6735H1.10777C0.534617 23.6735 0.0698242 23.2019 0.0698242 22.6205C0.0698242 22.039 0.534642 21.5675 1.10777 21.5675H7.30039C7.87354 21.5675 8.33833 22.039 8.33833 22.6205C8.33833 23.2019 7.87376 23.6735 7.30058 23.6735Z" fill="#652696"/>
<path d="M1.10786 27.6744H12.4064C12.98 27.6744 13.4443 27.2029 13.4448 26.6214C13.4448 26.0399 12.98 25.5684 12.4069 25.5684H1.10786C0.534735 25.5684 0.0699172 26.0399 0.0699172 26.6214C0.0699172 27.2028 0.53471 27.6744 1.10786 27.6744Z" fill="#652696"/>
</svg>
