<svg width="18" height="20" viewBox="0 0 18 20" fill="none" xmlns="http://www.w3.org/2000/svg">
<path fill-rule="evenodd" clip-rule="evenodd" d="M3.20418 1.50624C4.4837 0.828958 6.64653 0 9.02007 0C11.349 0 13.4598 0.7984 14.7324 1.46846C15.0387 1.62589 15.3353 1.80348 15.6205 2.00017L14.2438 4.12757L13.4661 4.55427C10.7877 5.98272 7.19669 5.98272 4.5189 4.55427L3.83369 4.26591L2.37814 2.00017C2.51266 1.90627 2.68186 1.79959 2.88049 1.68514C2.98085 1.62736 3.08858 1.56735 3.20418 1.50624ZM4.11009 2.16018C4.60998 2.3276 5.11905 2.46268 5.63447 2.56466C6.76844 2.78634 7.91081 2.81857 8.88818 2.51965C10.1304 2.14018 11.4341 1.83182 12.6558 1.65014C11.6133 1.28677 10.3527 1.00008 9.01955 1.00008C7.09528 1.00008 5.30868 1.59736 4.11009 2.16018Z" fill="#FFA000"/>
<path fill-rule="evenodd" clip-rule="evenodd" d="M13.8922 5.44712L14.021 5.37823C18.4118 10.3386 21.873 20 9.02007 20C-3.83395 20 -0.455187 10.5159 3.97031 5.38156L4.09222 5.44712C7.03853 7.01836 10.9459 7.01836 13.8922 5.44712ZM7.16447 9.5C6.90291 9.5 6.69082 9.72391 6.69082 10C6.69082 10.2761 6.90291 10.5 7.16447 10.5H8.34868C8.83421 10.5 9.25164 10.8078 9.43371 11.25H7.16447C6.90291 11.25 6.69082 11.4734 6.69082 11.75C6.69082 12.0266 6.90291 12.25 7.16447 12.25H9.43371C9.25164 12.6922 8.83421 13 8.34868 13H7.16447C6.95857 13 6.77626 13.1266 6.71342 13.3469C6.65058 13.5547 6.72162 13.7672 6.88914 13.9062L10.2049 16.4062C10.4181 16.5672 10.7141 16.5016 10.8651 16.2906C11.0176 16.0656 10.9554 15.7531 10.7556 15.5797L8.61957 13.9828C9.51069 13.8625 10.2316 13.1609 10.427 12.25H10.9539C11.216 12.25 11.4276 12.0266 11.4276 11.75C11.4276 11.4734 11.216 11.25 10.9539 11.25H10.427C10.3692 10.9781 10.2641 10.725 10.122 10.5H10.9539C11.216 10.5 11.4276 10.2761 11.4276 10C11.4276 9.72391 11.216 9.5 10.9539 9.5H7.16447Z" fill="#FFA000"/>
</svg>
