<svg width="32" height="32" viewBox="0 0 32 32" fill="none" xmlns="http://www.w3.org/2000/svg">
<circle cx="16" cy="16" r="16" fill="#652696"/>
<path d="M14.9329 11.8389L15.8209 11.0086L16.685 11.8166L15.7971 12.6469C16.6745 13.6739 17.0981 14.9761 16.9808 16.2859C16.8636 17.5958 16.2144 18.814 15.1667 19.6903C14.1189 20.5667 12.7521 21.0346 11.3469 20.998C9.94177 20.9614 8.60491 20.4231 7.61091 19.4937C6.61692 18.5642 6.04125 17.3141 6.00213 16.0002C5.96301 14.6862 6.46342 13.4081 7.40057 12.4284C8.33773 11.4486 9.64049 10.8416 11.0413 10.732C12.4421 10.6224 13.8347 11.0185 14.9329 11.8389ZM11.4997 19.8574C12.0615 19.8574 12.6178 19.7539 13.1368 19.5529C13.6558 19.3519 14.1273 19.0572 14.5246 18.6858C14.9218 18.3143 15.2369 17.8734 15.4519 17.388C15.6669 16.9027 15.7775 16.3826 15.7775 15.8573C15.7775 15.332 15.6669 14.8118 15.4519 14.3265C15.2369 13.8412 14.9218 13.4002 14.5246 13.0288C14.1273 12.6574 13.6558 12.3627 13.1368 12.1617C12.6178 11.9607 12.0615 11.8572 11.4997 11.8572C10.3652 11.8572 9.27713 12.2786 8.47489 13.0288C7.67265 13.779 7.22196 14.7964 7.22196 15.8573C7.22196 16.9182 7.67265 17.9356 8.47489 18.6858C9.27713 19.4359 10.3652 19.8574 11.4997 19.8574ZM10.8886 13.0001H12.1108V16.4287H10.8886V13.0001ZM9.05529 9H13.9442V10.1429H9.05529V9Z" fill="white"/>
<path d="M19.1563 16.1308L25.567 16.1568L21.409 21.1311C21.2146 21.3641 21.1207 21.6647 21.1479 21.967C21.1752 22.2692 21.3214 22.5482 21.5544 22.7427C21.7874 22.9371 22.0881 23.031 22.3903 23.0037C22.6925 22.9765 22.9715 22.8303 23.166 22.5973L28.8932 15.752C28.9318 15.6975 28.9663 15.6403 28.9964 15.5808C28.9965 15.5236 28.9966 15.4894 29.0767 15.4324C29.1288 15.3015 29.1561 15.162 29.1575 15.0212C29.1567 14.8803 29.1299 14.7407 29.0783 14.6096C29.0784 14.5525 29.0785 14.5182 28.9986 14.4609C28.9687 14.4012 28.9344 14.3439 28.8961 14.2893L23.1958 7.42151C23.0886 7.2923 22.9543 7.1883 22.8024 7.1169C22.6504 7.0455 22.4846 7.00845 22.3167 7.00839C22.0497 7.00734 21.7908 7.09983 21.5848 7.26978C21.4689 7.36549 21.3731 7.48312 21.3027 7.61594C21.2323 7.74876 21.1888 7.89415 21.1747 8.0438C21.1607 8.19344 21.1762 8.3444 21.2206 8.48802C21.2649 8.63164 21.3371 8.76511 21.4331 8.88077L25.5715 13.8713L19.1608 13.8453C18.8577 13.8447 18.5668 13.9645 18.3521 14.1784C18.1373 14.3923 18.0164 14.6827 18.0158 14.9858C18.0152 15.2888 18.135 15.5797 18.3489 15.7945C18.5628 16.0092 18.8532 16.1302 19.1563 16.1308Z" fill="white"/>
</svg>
