<svg width="32" height="32" viewBox="0 0 32 32" fill="none" xmlns="http://www.w3.org/2000/svg">
<circle cx="16" cy="16" r="16" fill="#652696"/>
<path d="M24.1667 14.9455L10.6141 14.8278L14.8054 9.88162C15.0014 9.64994 15.0973 9.3499 15.0721 9.04749C15.0469 8.74509 14.9025 8.46509 14.6709 8.26911C14.4392 8.07312 14.1391 7.97719 13.8367 8.00242C13.5343 8.02766 13.2543 8.17199 13.0583 8.40367L7.28525 15.2103C7.24634 15.2645 7.21147 15.3215 7.18092 15.3808C7.18043 15.438 7.18013 15.4723 7.09964 15.5287C7.04671 15.6593 7.01838 15.7985 7.01608 15.9394C7.01593 16.0803 7.04184 16.22 7.0925 16.3514C7.092 16.4086 7.0917 16.4429 7.1712 16.5007C7.20071 16.5605 7.23459 16.6181 7.27255 16.673L12.9266 23.5789C13.0329 23.7088 13.1665 23.8137 13.318 23.8861C13.4695 23.9586 13.635 23.9967 13.8029 23.9979C14.0699 24.0007 14.3294 23.91 14.5365 23.7414C14.6531 23.6465 14.7497 23.5295 14.821 23.3972C14.8922 23.2648 14.9367 23.1197 14.9518 22.9702C14.9669 22.8206 14.9523 22.6696 14.909 22.5257C14.8656 22.3817 14.7943 22.2478 14.6991 22.1315L10.5943 17.1132L24.1468 17.2309C24.4499 17.2336 24.7416 17.1157 24.9578 16.9033C25.1739 16.6908 25.2968 16.4012 25.2995 16.0981C25.3021 15.7951 25.1842 15.5034 24.9718 15.2872C24.7594 15.0711 24.4697 14.9481 24.1667 14.9455Z" fill="white"/>
</svg>
