<svg width="31" height="32" viewBox="0 0 31 32" fill="none" xmlns="http://www.w3.org/2000/svg">
<path fill-rule="evenodd" clip-rule="evenodd" d="M18.8428 12.539C18.003 13.3727 16.866 13.8379 15.6827 13.8326L15.6828 13.8326C14.5038 13.8281 13.3749 13.3562 12.5433 12.5207C11.7115 11.6853 11.2449 10.554 11.2459 9.37528C11.2459 8.19181 11.7165 7.05718 12.5538 6.22114C13.3912 5.38512 14.5266 4.91638 15.71 4.91804C16.8933 4.91998 18.0274 5.39227 18.8621 6.23091C19.6969 7.06962 20.164 8.20564 20.1604 9.38887C20.1568 10.5723 19.6827 11.7056 18.8428 12.539ZM16.9209 8.13364C16.5908 7.8097 16.1453 7.63078 15.6827 7.63623C15.2244 7.63978 14.7863 7.82486 14.464 8.15094C14.1417 8.47684 13.9618 8.91735 13.9637 9.37566C13.9637 9.838 14.1478 10.2816 14.4756 10.6079C14.8034 10.9342 15.2474 11.1167 15.71 11.1148C16.1726 11.1131 16.6152 10.9271 16.9404 10.5982C17.2655 10.2693 17.4461 9.82422 17.4425 9.36189C17.439 8.89931 17.2513 8.45735 16.9209 8.13364Z" fill="#652696"/>
<path fill-rule="evenodd" clip-rule="evenodd" d="M3.76872 31.6279C2.76064 31.6249 1.80612 31.1741 1.16294 30.398L1.16325 30.3973C0.51727 29.625 0.247356 28.6058 0.426035 27.615L1.72726 20.3958C1.86897 19.6123 2.28132 18.9035 2.89222 18.3931C3.50313 17.8828 4.27401 17.6032 5.07 17.6032H8.88861L7.93737 16.3224C6.48729 14.4175 5.76452 12.0577 5.89888 9.66732C6.24528 4.44903 10.5055 0.372101 15.5981 0.372101C20.6904 0.372101 24.9508 4.44927 25.2871 9.6843C25.4214 12.0748 24.6986 14.4349 23.2486 16.3399L22.2941 17.6037H26.2961C27.0921 17.6037 27.863 17.8834 28.4739 18.3936C29.0848 18.9041 29.4972 19.6129 29.6389 20.3963L30.9401 27.6259C31.1192 28.6166 30.8498 29.6356 30.2043 30.4084C29.559 31.1812 28.604 31.6277 27.597 31.6279H3.76872ZM15.5984 3.09054C11.5077 3.09054 8.83053 6.53235 8.60967 9.8481L8.60979 9.84774C8.52189 11.5924 9.05914 13.3114 10.125 14.6955L15.5983 22.0234L21.0712 14.6852C22.1372 13.3011 22.6746 11.5821 22.5865 9.83718C22.3656 6.52173 19.6888 3.09054 15.5984 3.09054ZM4.40383 20.8826L3.11304 28.0982L3.08906 28.0984C3.05257 28.2986 3.10754 28.5048 3.23907 28.6602C3.37083 28.8155 3.56514 28.9036 3.76871 28.9003H27.5734C27.7762 28.9034 27.9698 28.8157 28.1013 28.6612C28.2329 28.5067 28.2883 28.3017 28.2528 28.1019L26.9755 20.879C26.9158 20.5523 26.6283 20.3167 26.2961 20.3219H20.2624L16.6884 25.1053C16.432 25.4489 16.0284 25.6513 15.5997 25.6513C15.171 25.6513 14.7675 25.4489 14.5108 25.1053L10.9268 20.3219H5.08347C4.75005 20.3169 4.46213 20.5544 4.40383 20.8826Z" fill="#652696"/>
</svg>
