<svg width="32" height="32" viewBox="0 0 32 32" fill="none" xmlns="http://www.w3.org/2000/svg">
<path d="M29.0991 23.1742C29.1209 22.2742 28.5032 21.5436 27.705 21.4309C26.2196 21.2345 24.7615 20.8706 23.3556 20.3447C22.7792 20.1276 22.131 20.2663 21.6871 20.706L19.8526 22.5444C19.4454 22.9523 18.7963 23.0369 18.2894 22.7481C14.4768 20.5757 11.3232 17.4154 9.15932 13.6024C8.89857 13.1425 8.97771 12.5746 9.35554 12.1961L11.1852 10.3627C11.6507 9.89094 11.8028 9.17541 11.5643 8.53941C11.0448 7.14406 10.6844 5.69462 10.4914 4.22906C10.3722 3.38314 9.66883 2.77678 8.85517 2.78487H4.52327C4.08069 2.78531 3.65358 2.97411 3.34487 3.31314C3.02416 3.66525 2.86304 4.14466 2.9049 4.61255C3.35991 8.90565 4.8172 13.0299 7.16335 16.6589C9.28556 20.0058 12.1151 22.8414 15.4601 24.9713C19.0425 27.2991 23.1172 28.7518 27.3334 29.2112C27.774 29.2511 28.2145 29.1017 28.55 28.7932C28.8991 28.4723 29.101 28.0099 29.099 27.5169L29.0991 23.1742ZM31.6268 27.5121C31.6314 28.6541 31.1537 29.7492 30.3039 30.5304C29.4407 31.324 28.2741 31.7193 27.0708 31.61C22.4214 31.1038 17.9569 29.5124 14.0471 26.9714C10.402 24.6503 7.31372 21.5557 5.00637 17.9167C2.46465 13.9846 0.883551 9.51051 0.388425 4.8372C0.286391 3.70457 0.664877 2.57846 1.43734 1.73015C2.22203 0.868935 3.34155 0.373362 4.52218 0.372302H8.8423C10.9419 0.35159 12.7105 1.8756 12.9983 3.91778C13.1699 5.22092 13.4879 6.50046 13.9454 7.72882C14.5016 9.21118 14.1462 10.8808 13.0208 12.0213L11.833 13.2114C13.5822 16.025 15.9427 18.4024 18.7349 20.1664L19.8615 19.0375C21.0166 17.8928 22.7488 17.5226 24.2809 18.0997C25.4987 18.5552 26.7639 18.8709 28.0638 19.0429C30.1535 19.3383 31.6701 21.1265 31.6269 23.1873L31.6268 27.5121Z" fill="#652696"/>
</svg>
