<svg width="24" height="24" viewBox="0 0 24 24" fill="none" xmlns="http://www.w3.org/2000/svg">
<path d="M12.378 1.83769C12.2669 1.75678 12.1327 1.71363 11.9953 1.71455C11.8578 1.71548 11.7243 1.76044 11.6143 1.84283C10.4091 2.74711 8.92798 3.38226 7.52227 3.82283C6.1283 4.25352 4.69636 4.55002 3.24598 4.70826C3.22457 4.71064 3.20314 4.71293 3.1817 4.71511L3.16627 4.71597H3.16284C3.00156 4.72892 2.85109 4.8022 2.74146 4.9212C2.63183 5.04021 2.57111 5.19617 2.57141 5.35797V10.9285C2.57141 15.294 5.55084 20.2457 11.8028 22.2548C11.931 22.2961 12.0689 22.2961 12.1971 22.2548C12.4423 22.176 12.6823 22.092 12.9171 22.0054C11.8249 20.859 11.1941 19.3497 11.1458 17.767C11.0976 16.1843 11.6351 14.6394 12.6555 13.4285C13.6758 12.2176 15.1072 11.4259 16.6752 11.2052C18.2432 10.9844 19.8375 11.3502 21.1526 12.2323C21.1937 11.8637 21.2143 11.5003 21.2143 11.1428V5.35711C21.2142 5.19615 21.1538 5.04107 21.0449 4.92252C20.936 4.80396 20.7866 4.73056 20.6263 4.71683H20.6246L20.616 4.71597L20.5774 4.71169C20.5431 4.70826 20.4908 4.70311 20.4214 4.69454C20.2843 4.67911 20.0811 4.6534 19.8257 4.61483C19.1332 4.50853 18.4462 4.36952 17.7668 4.19826C16.1023 3.77826 14.0494 3.05397 12.378 1.83769V1.83769ZM23.1428 17.5714C23.1428 16.0938 22.5559 14.6766 21.511 13.6318C20.4662 12.587 19.049 12 17.5714 12C16.0938 12 14.6767 12.587 13.6318 13.6318C12.587 14.6766 12 16.0938 12 17.5714C12 19.049 12.587 20.4661 13.6318 21.511C14.6767 22.5558 16.0938 23.1428 17.5714 23.1428C19.049 23.1428 20.4662 22.5558 21.511 21.511C22.5559 20.4661 23.1428 19.049 23.1428 17.5714V17.5714ZM20.8748 15.1251C20.9148 15.1649 20.9464 15.2122 20.968 15.2643C20.9896 15.3164 21.0008 15.3722 21.0008 15.4285C21.0008 15.4849 20.9896 15.5407 20.968 15.5928C20.9464 15.6449 20.9148 15.6922 20.8748 15.732L16.5891 20.0177C16.5493 20.0576 16.502 20.0893 16.45 20.1109C16.3979 20.1325 16.3421 20.1436 16.2857 20.1436C16.2293 20.1436 16.1735 20.1325 16.1214 20.1109C16.0694 20.0893 16.0221 20.0576 15.9823 20.0177L14.268 18.3034C14.2281 18.2636 14.1965 18.2162 14.175 18.1642C14.1534 18.1121 14.1423 18.0563 14.1423 18C14.1423 17.9436 14.1534 17.8878 14.175 17.8358C14.1965 17.7837 14.2281 17.7364 14.268 17.6965C14.3078 17.6567 14.3551 17.6251 14.4072 17.6035C14.4593 17.582 14.5151 17.5709 14.5714 17.5709C14.6278 17.5709 14.6836 17.582 14.7356 17.6035C14.7877 17.6251 14.835 17.6567 14.8748 17.6965L16.2857 19.1083L20.268 15.1251C20.3078 15.0852 20.3551 15.0535 20.4072 15.0319C20.4592 15.0103 20.515 14.9992 20.5714 14.9992C20.6278 14.9992 20.6836 15.0103 20.7357 15.0319C20.7877 15.0535 20.835 15.0852 20.8748 15.1251V15.1251Z" fill="#652696"/>
</svg>
