<svg width="24" height="24" viewBox="0 0 24 24" fill="none" xmlns="http://www.w3.org/2000/svg">
<g clip-path="url(#clip0_344_713)">
<path d="M12 1.33331C9.89032 1.33331 7.82803 1.9589 6.0739 3.13097C4.31978 4.30304 2.9526 5.96894 2.14527 7.91802C1.33793 9.8671 1.1267 12.0118 1.53827 14.0809C1.94985 16.1501 2.96575 18.0507 4.45751 19.5425C5.94927 21.0342 7.84989 22.0501 9.91902 22.4617C11.9882 22.8733 14.1329 22.662 16.0819 21.8547C18.031 21.0474 19.6969 19.6802 20.869 17.9261C22.0411 16.1719 22.6667 14.1096 22.6667 12C22.6667 9.171 21.5428 6.4579 19.5425 4.45751C17.5421 2.45712 14.829 1.33331 12 1.33331V1.33331ZM11.8533 18.5666C11.6358 18.5666 11.4231 18.5021 11.2422 18.3813C11.0613 18.2604 10.9203 18.0886 10.837 17.8876C10.7538 17.6866 10.732 17.4654 10.7745 17.252C10.8169 17.0387 10.9217 16.8427 11.0755 16.6888C11.2293 16.535 11.4253 16.4302 11.6387 16.3878C11.8521 16.3453 12.0733 16.3671 12.2743 16.4504C12.4753 16.5336 12.6471 16.6746 12.7679 16.8555C12.8888 17.0364 12.9533 17.2491 12.9533 17.4666C12.9533 17.7584 12.8374 18.0382 12.6311 18.2445C12.4248 18.4508 12.1451 18.5666 11.8533 18.5666V18.5666ZM12.7667 13.1933V14.34C12.7653 14.5732 12.6747 14.797 12.5136 14.9656C12.3524 15.1342 12.1329 15.2347 11.9 15.2466H11.8267C11.7088 15.2511 11.5912 15.2322 11.4807 15.1909C11.3701 15.1497 11.2689 15.087 11.1827 15.0064C11.0966 14.9258 11.0272 14.829 10.9787 14.7215C10.9302 14.614 10.9034 14.4979 10.9 14.38V12.54C10.889 12.4331 10.8998 12.3251 10.9318 12.2225C10.9638 12.12 11.0163 12.025 11.0862 11.9433C11.156 11.8616 11.2417 11.795 11.338 11.7474C11.4344 11.6999 11.5394 11.6724 11.6467 11.6666C12.6933 11.5866 14.4333 11.2 14.4333 9.49998C14.4333 8.27998 13.4933 7.45331 12.1467 7.45331C11.6361 7.46174 11.1335 7.5805 10.6732 7.80144C10.2129 8.02238 9.80587 8.34027 9.47998 8.73331C9.35673 8.86428 9.19731 8.95563 9.022 8.99575C8.84669 9.03587 8.66341 9.02295 8.49547 8.95863C8.32752 8.89431 8.18249 8.7815 8.07883 8.63454C7.97517 8.48757 7.91756 8.3131 7.91332 8.13331C7.91725 7.88199 8.02028 7.64239 8.19998 7.46665C8.69507 6.89348 9.30983 6.43585 10.0009 6.126C10.692 5.81615 11.4427 5.66163 12.2 5.67331C14.6667 5.67331 16.3867 7.20665 16.3867 9.40665C16.3867 11.44 15.0733 12.8 12.7667 13.1933V13.1933Z" fill="#652696"/>
</g>
<defs>
<clipPath id="clip0_344_713">
<rect width="24" height="24" fill="white"/>
</clipPath>
</defs>
</svg>
