<svg width="25" height="21" viewBox="0 0 25 21" fill="none" xmlns="http://www.w3.org/2000/svg">
<path fill-rule="evenodd" clip-rule="evenodd" d="M3.22455 16.9735C3.22455 15.5133 4.17588 14.0974 5.68935 14.0974C6.68392 14.0974 8.24064 13.9646 8.97575 14.3628C9.06224 14.4071 9.27845 14.5398 9.36493 14.5841C9.45142 14.6283 9.45142 14.6726 9.5379 14.7168L9.71087 14.8938C10.619 15.823 10.7919 17.7257 9.8406 17.7257H3.82994C3.44076 17.7257 3.22455 17.4159 3.22455 16.9735ZM1.58135 5.38054H12.5649C12.5649 5.46903 12.5649 5.60177 12.5649 5.64602C12.5649 9.84956 13.2567 12.5044 16.5431 14.9823C16.9756 15.3363 17.408 15.646 17.8836 15.9115C18.0998 16.0885 19.0512 16.6637 19.3539 16.6637C19.6998 16.6637 20.6511 16.0443 21.343 15.5575V19.4071C21.343 20.292 20.6511 21 19.8295 21H1.58135C0.759746 21 0.0678711 20.292 0.0678711 19.4071V6.92921C0.0678711 6.0885 0.759746 5.38054 1.58135 5.38054ZM18.7485 9.45133C18.3593 9.18584 17.5809 8.30089 17.235 7.90266C17.062 7.72567 16.5864 7.23894 16.4134 7.15045C16.0242 6.88496 15.5918 7.28319 15.5918 7.63717C15.5918 8.07965 17.2782 9.62832 17.7539 10.115C18.9215 11.3097 18.7052 11 20.9971 8.65487C21.343 8.30089 23.0295 6.75222 23.0727 6.39823C23.0727 6.13275 22.8997 5.86726 22.6835 5.77877C22.2079 5.64602 21.516 6.57523 20.9106 7.19469L18.7485 9.45133ZM13.7324 6.79646V3.92036C13.7324 3.65487 13.7756 3.65487 13.8189 3.38938C14.554 3.34514 16.0675 2.76992 16.8026 2.46018C17.235 2.28319 17.7107 2.0177 18.0998 1.79646C19.7863 0.734517 18.8782 0.734517 20.5214 1.75222C21.5592 2.37169 23.7213 3.30089 24.8456 3.38938C24.8889 3.65487 24.9321 3.65487 24.9321 3.92036C24.9321 6.92921 25.2348 9.98231 23.2889 12.2832C22.7268 12.9912 22.2079 13.4336 21.516 14.0089C21.2565 14.2301 19.6566 15.3805 19.3539 15.3805C19.0512 15.3805 17.4512 14.2743 17.1918 14.0531C14.727 12.0177 13.7324 10.2035 13.7324 6.79646ZM12.4784 15.9115H15.3324C15.7215 15.9115 15.8945 14.9823 15.2026 14.9823H12.4784C11.873 14.9823 11.873 15.9115 12.4784 15.9115ZM12.0027 18.2566C12.0027 18.4779 12.2622 18.7434 12.5649 18.7434H16.9756C17.7107 18.7434 17.7107 17.7257 16.9756 17.7257H12.5649C12.2622 17.7257 12.0027 17.9912 12.0027 18.2566ZM4.82451 11.0885C4.82451 9.09735 7.02986 8.30089 8.28388 9.53983C9.40818 10.7345 8.93251 13.0797 6.72716 13.0797C5.68935 13.0797 4.82451 12.1062 4.82451 11.0885ZM3.87318 10.7788C3.87318 11.6195 3.91642 12.1062 4.47857 12.8584C4.6083 13.0354 4.69478 13.1239 4.82451 13.2566C3.57049 13.5664 2.27322 15.0708 2.27322 16.531C2.27322 17.2832 2.22998 17.7699 2.83537 18.3451C3.13806 18.6106 3.52724 18.7434 4.08939 18.7434H9.62439C10.1433 18.7434 10.5325 18.6106 10.8352 18.3451C11.4838 17.8142 11.3973 17.2832 11.3973 16.531C11.3973 15.0708 10.1433 13.5664 8.84603 13.2566C9.40818 12.4602 9.79736 12.4602 9.79736 10.7788C9.79736 8.96461 7.63525 7.32744 5.60287 8.25664C5.34341 8.38938 4.95423 8.61062 4.78127 8.83186C4.34884 9.23009 3.87318 10.115 3.87318 10.7788Z" fill="#652696"/>
</svg>
