<svg width="24" height="24" viewBox="0 0 24 24" fill="none" xmlns="http://www.w3.org/2000/svg">
<path d="M10.968 2.32502C11.2676 2.10624 11.629 1.98834 12 1.98834C12.371 1.98834 12.7324 2.10624 13.032 2.32502L20.453 7.74102C21.43 8.45302 20.927 9.99802 19.719 10.001H4.28C3.072 9.99802 2.57 8.45302 3.546 7.74102L10.967 2.32502H10.968ZM13 6.25002C13 5.9848 12.8946 5.73045 12.7071 5.54291C12.5196 5.35538 12.2652 5.25002 12 5.25002C11.7348 5.25002 11.4804 5.35538 11.2929 5.54291C11.1054 5.73045 11 5.9848 11 6.25002C11 6.51524 11.1054 6.76959 11.2929 6.95713C11.4804 7.14466 11.7348 7.25002 12 7.25002C12.2652 7.25002 12.5196 7.14466 12.7071 6.95713C12.8946 6.76959 13 6.51524 13 6.25002ZM11.25 16H9.25V11H11.25V16ZM14.75 16H12.75V11H14.75V16ZM18.5 16H16.25V11H18.5V16ZM18.75 17H5.25C4.65326 17 4.08097 17.2371 3.65901 17.659C3.23705 18.081 3 18.6533 3 19.25V19.75C3 20.165 3.336 20.5 3.75 20.5H20.25C20.4489 20.5 20.6397 20.421 20.7803 20.2804C20.921 20.1397 21 19.9489 21 19.75V19.25C21 18.6533 20.7629 18.081 20.341 17.659C19.919 17.2371 19.3467 17 18.75 17V17ZM7.75 16H5.5V11H7.75V16Z" fill="#652696"/>
</svg>
