<svg width="16" height="20" viewBox="0 0 16 20" fill="none" xmlns="http://www.w3.org/2000/svg">
<path d="M7.94631 9.47368C8.57244 9.47368 9.19244 9.35116 9.77091 9.11311C10.3494 8.87507 10.875 8.52615 11.3177 8.0863C11.7605 7.64644 12.1117 7.12425 12.3513 6.54955C12.5909 5.97485 12.7142 5.35889 12.7142 4.73684C12.7142 4.11479 12.5909 3.49883 12.3513 2.92413C12.1117 2.34943 11.7605 1.82725 11.3177 1.38739C10.875 0.947532 10.3494 0.598619 9.77091 0.360571C9.19244 0.122522 8.57244 -1.31087e-08 7.94631 0C6.68179 2.64743e-08 5.46905 0.499059 4.5749 1.38739C3.68074 2.27572 3.17841 3.48055 3.17841 4.73684C3.17841 5.99313 3.68074 7.19796 4.5749 8.0863C5.46905 8.97463 6.68179 9.47368 7.94631 9.47368ZM-0.000183105 13.9474C-0.000183105 13.3192 0.250982 12.7168 0.698059 12.2726C1.14514 11.8285 1.7515 11.5789 2.38377 11.5789H13.5089C14.1411 11.5789 14.7475 11.8285 15.1946 12.2726C15.6416 12.7168 15.8928 13.3192 15.8928 13.9474V14.4737C15.8928 14.4737 15.8928 20 7.94631 20C-0.000183105 20 -0.000183105 14.4737 -0.000183105 14.4737V13.9474Z" fill="#652696"/>
</svg>
