<svg width="24" height="24" viewBox="0 0 24 24" fill="none" xmlns="http://www.w3.org/2000/svg">
<path d="M11.25 13V22H7.25C6.8232 22 6.40059 21.9159 6.00628 21.7526C5.61197 21.5893 5.25369 21.3499 4.9519 21.0481C4.65011 20.7463 4.41072 20.388 4.24739 19.9937C4.08406 19.5994 4 19.1768 4 18.75V13H11.25ZM20 13V18.75C20 19.1768 19.9159 19.5994 19.7526 19.9937C19.5893 20.388 19.3499 20.7463 19.0481 21.0481C18.7463 21.3499 18.388 21.5893 17.9937 21.7526C17.5994 21.9159 17.1768 22 16.75 22H12.75V13H20ZM14.5 1.99998C15.0832 1.99986 15.6556 2.15665 16.1573 2.45391C16.659 2.75117 17.0715 3.17794 17.3515 3.68948C17.6315 4.20102 17.7687 4.77847 17.7488 5.36129C17.7288 5.9441 17.5524 6.51081 17.238 7.00198L19.75 6.99998C20.44 6.99998 21 7.46598 21 8.04198V10.958C21 11.534 20.44 12 19.75 12L12.75 11.999V6.99998H11.25V11.999L4.25 12C3.56 12 3 11.534 3 10.958V8.04198C3 7.46598 3.56 6.99998 4.25 6.99998L6.762 7.00198C6.31583 6.30524 6.15218 5.46456 6.30441 4.65133C6.45665 3.8381 6.91331 3.11355 7.58129 2.62537C8.24928 2.1372 9.0783 1.92216 9.89935 2.0241C10.7204 2.12604 11.4717 2.53728 12 3.17398C12.3045 2.80617 12.6864 2.5102 13.1186 2.30725C13.5508 2.10429 14.0225 1.99937 14.5 1.99998V1.99998ZM9.5 3.49998C9.04848 3.50018 8.61452 3.67489 8.28881 3.98759C7.96311 4.30029 7.77086 4.72678 7.75227 5.17792C7.73368 5.62905 7.89017 6.06991 8.18904 6.40835C8.48792 6.74679 8.90603 6.95662 9.356 6.99398L9.5 6.99998H11.25V5.24998L11.244 5.10598C11.2079 4.66828 11.0085 4.26017 10.6854 3.96266C10.3623 3.66515 9.93919 3.5 9.5 3.49998ZM14.5 3.49998C14.0359 3.49998 13.5908 3.68435 13.2626 4.01254C12.9344 4.34073 12.75 4.78585 12.75 5.24998V6.99998H14.5C14.9641 6.99998 15.4092 6.8156 15.7374 6.48742C16.0656 6.15923 16.25 5.71411 16.25 5.24998C16.25 4.78585 16.0656 4.34073 15.7374 4.01254C15.4092 3.68435 14.9641 3.49998 14.5 3.49998V3.49998Z" fill="#652696"/>
</svg>
