<svg width="18" height="22" viewBox="0 0 18 22" fill="none" xmlns="http://www.w3.org/2000/svg">
<path d="M9.58345 0.604542L16.369 2.94284C17.1285 3.20334 17.6421 3.91997 17.6462 4.72308L17.6894 11.6958C17.7028 13.8096 16.9525 15.8596 15.5785 17.4658C14.9466 18.2031 14.1366 18.8363 13.1023 19.4026L9.4548 21.4052C9.34056 21.467 9.215 21.4989 9.08841 21.5C8.96181 21.501 8.83522 21.4701 8.72201 21.4093L5.04056 19.453C3.99489 18.896 3.17771 18.272 2.5396 17.5451C1.14298 15.9554 0.366959 13.9146 0.353579 11.7977L0.310327 4.83016C0.306236 4.02602 0.810544 3.30424 1.56598 3.03345L8.32577 0.61175C8.72716 0.465542 9.17486 0.462453 9.58345 0.604542ZM12.8283 8.07959C12.5247 7.77996 12.0358 7.78202 11.7363 8.08577L8.29263 11.5721L6.88262 10.18C6.57901 9.88042 6.09117 9.88351 5.79064 10.1873C5.49114 10.491 5.49423 10.979 5.79785 11.2787L7.75641 13.2144C7.90874 13.3647 8.10634 13.4388 8.30395 13.4368C8.50156 13.4357 8.69813 13.3596 8.8484 13.2072L12.8345 9.171C13.134 8.86726 13.1309 8.37921 12.8283 8.07959Z" fill="#652696"/>
</svg>
