<svg width="24" height="24" viewBox="0 0 24 24" fill="none" xmlns="http://www.w3.org/2000/svg">
<path d="M17.58 10.2144C14.844 4.326 13.4208 2.0892 8.9508 2.1828C7.3584 2.2152 7.74 1.0284 6.5256 1.4784C5.3136 1.9284 6.354 2.5872 5.1132 3.606C1.6308 6.4656 1.9512 9.1104 3.5664 15.414C4.2468 18.0696 1.926 18.1992 2.844 20.772C3.5148 22.6488 8.4588 23.4348 13.674 21.5004C18.8904 19.5648 22.1772 15.7236 21.5064 13.8468C20.5884 11.2728 18.7332 12.6936 17.58 10.2144ZM13.1088 19.914C8.4504 21.642 4.6224 20.6268 4.4604 20.1744C4.182 19.3944 5.964 16.7952 11.2896 14.8188C16.6152 12.8424 19.5876 13.5756 19.8984 14.4456C20.082 14.9604 17.7684 18.1848 13.1088 19.914ZM11.6112 15.7212C9.1764 16.6248 7.4844 17.658 6.3876 18.588C7.1592 19.2888 8.604 19.4592 10.0428 18.9252C11.8752 18.2472 13.002 16.686 12.5568 15.4404L12.5376 15.3972C12.2364 15.4956 11.928 15.6024 11.6112 15.7212Z" fill="#652696"/>
</svg>
