<svg width="39" height="39" viewBox="0 0 39 39" fill="none" xmlns="http://www.w3.org/2000/svg">
<circle cx="19.5" cy="19.5" r="18.5" fill="#FFB400" stroke="#FFD760" stroke-width="2"/>
<path fill-rule="evenodd" clip-rule="evenodd" d="M16.7362 24.5387L18.689 29H20.3637L22.3338 24.6269V29H25V11L19.4806 24.1688L14 11.0487V29H16.7362V24.5387Z" fill="white"/>
<path fill-rule="evenodd" clip-rule="evenodd" d="M12.9298 19.9564C12.8555 19.4594 9.04196 14.9924 9 15C9.50577 17.8533 11.5732 26.355 12.209 29L12.8324 28.9934C13.0118 28.5926 13.0519 20.7742 12.9298 19.9564Z" fill="white"/>
<path d="M8 14C8.55228 14 9 13.5523 9 13C9 12.4477 8.55228 12 8 12C7.44772 12 7 12.4477 7 13C7 13.5523 7.44772 14 8 14Z" fill="white"/>
<path d="M13 10C13.5523 10 14 9.55228 14 9C14 8.44772 13.5523 8 13 8C12.4477 8 12 8.44772 12 9C12 9.55228 12.4477 10 13 10Z" fill="white"/>
<path d="M19.5 8C19.7761 8 20 7.55228 20 7C20 6.44772 19.7761 6 19.5 6C19.2239 6 19 6.44772 19 7C19 7.55228 19.2239 8 19.5 8Z" fill="white"/>
<path d="M26 10C26.5523 10 27 9.55228 27 9C27 8.44772 26.5523 8 26 8C25.4477 8 25 8.44772 25 9C25 9.55228 25.4477 10 26 10Z" fill="white"/>
<path d="M31 14C31.5523 14 32 13.5523 32 13C32 12.4477 31.5523 12 31 12C30.4477 12 30 12.4477 30 13C30 13.5523 30.4477 14 31 14Z" fill="white"/>
<path fill-rule="evenodd" clip-rule="evenodd" d="M26.0702 19.9564C26.1444 19.4594 29.9565 14.9924 29.9984 15C30.0664 15.4992 27.9381 24.1932 27.5336 25.9078L26.7907 29L26.1675 28.9934C25.9883 28.5926 25.9481 20.7742 26.0702 19.9564Z" fill="white"/>
<path fill-rule="evenodd" clip-rule="evenodd" d="M19.507 23L18.2535 19.5097L17 16.0195L18.2465 12.5097L19.4931 9L20.7465 12.4903L22 15.9805L20.7535 19.4903L19.507 23Z" fill="white"/>
<path fill-rule="evenodd" clip-rule="evenodd" d="M17 29H18L17.0344 28L17 29Z" fill="white"/>
<path fill-rule="evenodd" clip-rule="evenodd" d="M22 29H21L21.9656 28L22 29Z" fill="white"/>
</svg>
