<?xml version="1.0" encoding="UTF-8"?>
<!DOCTYPE svg PUBLIC "-//W3C//DTD SVG 1.1//EN" "http://www.w3.org/Graphics/SVG/1.1/DTD/svg11.dtd">
<!-- Creator: CorelDRAW 2021 (64-Bit) -->
<svg xmlns="http://www.w3.org/2000/svg" xml:space="preserve" width="1022px" height="196px" version="1.1" style="shape-rendering:geometricPrecision; text-rendering:geometricPrecision; image-rendering:optimizeQuality; fill-rule:evenodd; clip-rule:evenodd"
viewBox="0 0 831.58 159.38"
 xmlns:xlink="http://www.w3.org/1999/xlink"
 xmlns:xodm="http://www.corel.com/coreldraw/odm/2003">
 <defs>
  <style type="text/css">
   <![CDATA[
    .fil2 {fill:none}
    .fil0 {fill:white}
    .fil3 {fill:url(#id2)}
    .fil1 {fill:url(#id3)}
   ]]>
  </style>
    <clipPath id="id0">
     <path d="M0 69.83l0 4.99c0,10.44 3.62,21.77 7.12,28.74 14.4,28.62 45.61,45.64 79.74,40.31 3.86,-0.6 7.28,-1.73 10.76,-2.54l8.73 9.8c2.26,2.45 6.15,8.25 10.28,8.25l2.61 0c5.17,0 10.21,-6.02 10.21,-11.4 0,-4.94 -1.69,-6.5 -4.59,-9.9 -2.11,-2.48 -4.14,-4.82 -6.29,-7.25l-18.62 -21.52c-2.08,-2.37 -4.29,-4.82 -6.26,-7.28 -2.02,-2.51 -4.2,-4.63 -6.18,-7.12 -7.28,-9.17 -21.24,-3.87 -21.24,7.46 0,4.68 4.21,8.81 6.71,11.35 1.53,1.56 2.75,3.22 4.28,4.74 0.97,0.98 3.53,3.8 4.21,4.82 -2.04,0.17 -5.2,0.66 -7.12,0.47 -14.74,0 -26.74,-6.66 -34.15,-14.07 -7.36,-7.36 -14.79,-19.12 -14.79,-33.67l0 -2.85c0,-25.18 22.37,-47.75 47.51,-47.75l3.33 0c32.92,0 59.28,37.44 42.35,71.34 -2.25,4.51 -5.06,6.83 -5.06,13.22 0,4.86 6.32,9.5 11.16,9.5l1.9 0c7.11,0 13.35,-11.99 15.84,-17.41 3.07,-6.7 6.49,-17.18 6.49,-26.76l0 -6.65c0,-9.25 -3.93,-21.87 -7.2,-27.96 -4.6,-8.54 -8.53,-13.54 -15.07,-20.08 -10.19,-10.21 -29.6,-20.61 -49.94,-20.61l-4.75 0c-20.2,0 -39.77,10.72 -49.94,20.84 -10.56,10.48 -22.03,28.17 -22.03,48.99z"/>
    </clipPath>
    <clipPath id="id1">
     <path d="M584.45 110.91l-19.38 0.01 10.21 -61.04 19.25 0 -10.08 61.03zm2.24 -69.58c-5.89,0 -10.93,-4.45 -10.93,-10.93 0,-5.87 4.86,-10.69 10.69,-10.69 5.78,0 10.93,5.04 10.93,10.69 0,5.74 -4.93,10.93 -10.69,10.93zm-17.1 -10.45c0,8.15 6.05,12.07 6.41,13.06 -1.89,-0.87 -5.61,1.79 -6.31,3.67 -0.87,2.33 -6.49,38.93 -7.61,44.88 -0.57,3.03 -0.99,6.11 -1.45,9.01 -0.4,2.51 -1.5,6.74 -1.5,9.19 0,3.69 2.67,6.17 6.42,6.17l18.52 0c3.76,0 5.62,-2.08 6.33,-5.31 0.69,-3.13 1.27,-6.85 1.71,-9.93 0.95,-6.7 2.39,-13.38 3.32,-19.95 0.95,-6.66 2.25,-13.4 3.34,-19.95 0.55,-3.33 1.06,-6.81 1.63,-10.01 0.58,-3.24 -0.98,-7.23 -3.97,-7.29 1.28,-1.91 6.88,-4.22 6.88,-14.49 0,-8.72 -7.45,-16.15 -16.15,-16.15l-1.19 0c-9.31,0 -16.38,7.7 -16.38,17.1z"/>
    </clipPath>
  <linearGradient id="id2" gradientUnits="userSpaceOnUse" x1="582.94" y1="80.1" x2="605.66" y2="122.5">
   <stop offset="0" style="stop-opacity:1; stop-color:#ED0E91"/>
   <stop offset="1" style="stop-opacity:1; stop-color:#6B2A97"/>
  </linearGradient>
  <linearGradient id="id3" gradientUnits="userSpaceOnUse" x1="74.46" y1="79.69" x2="154.86" y2="153.33">
   <stop offset="0" style="stop-opacity:1; stop-color:#ED0E91"/>
   <stop offset="0.560784" style="stop-opacity:1; stop-color:#AC1C94"/>
   <stop offset="1" style="stop-opacity:1; stop-color:#6B2A97"/>
  </linearGradient>
 </defs>
 <g id="Layer_x0020_1">
  <metadata id="CorelCorpID_0Corel-Layer"/>
  <g id="_2588793609088">
   <path class="fil0" d="M701.41 101.66l-1.42 0c-18.34,0 -12.41,-34.2 4.98,-34.2l2.62 0c6.21,0 10.45,6.32 10.45,12.82 0,10.43 -6.71,21.38 -16.63,21.38zm19.9 -42.05c-1.55,-1.17 -1.53,-2.94 -6.43,-5.38 -2.08,-1.03 -6.92,-2.27 -10.03,-1.88 -8.6,1.06 -12.39,2.18 -17.9,6.35 -8.42,6.37 -15.23,18.2 -15.23,32.99 0,13.74 8.89,24.94 22.33,24.94 5.01,0 8.57,-0.24 12.99,-2.45 1.25,-0.63 2.75,-1.54 3.8,-2.38 1.17,-0.93 2.42,-2.36 3.4,-3.01l-1.15 6.89 15.88 0 13.6 -85.98 -16.46 -0.01 -4.8 29.92z"/>
   <path class="fil0" d="M406.41 66.03c6.59,0 11.63,4.73 11.63,11.17l0 1.66 -27.31 0c0.42,-5.1 7.27,-12.83 15.68,-12.83zm-33.5 22.33l0 4.04c0,7.84 3.98,13.92 8.14,17.75 7.99,7.35 23.69,8.21 33.9,3.62 3.29,-1.48 8.37,-4.6 10.22,-7.36l-6.86 -10.47c-5.48,3.67 -6.91,5.96 -15.7,5.96 -7.61,0 -13.54,-4.92 -13.54,-12.35l42.75 0 1.43 -14.02c0,-13.01 -10.54,-23.27 -23.76,-23.27 -12.28,0 -19.07,4.3 -26.07,11.22 -4.78,4.73 -10.51,15.47 -10.51,24.88z"/>
   <path class="fil0" d="M623.03 60.09l1.06 -6.87 -15.79 -0.01 -9.89 62.44 16.54 0.03c0,-2.18 1.07,-7.07 1.46,-9.47 1.14,-6.85 3.17,-23.19 5.13,-27.89 2.02,-4.87 6.02,-9.43 11.98,-10.11 3.38,-0.38 6.63,-0.05 8.68,1.69 1.53,1.29 3.62,5.04 3.16,8.01l-5.69 37.77 16.37 0c0.82,-1.7 6.42,-38.88 6.42,-43.95 0,-11.61 -7.43,-19.47 -19,-19.47 -6.14,0 -12.12,1.57 -16.7,4.91 -1.35,0.98 -2.45,2.07 -3.73,2.92z"/>
   <path class="fil0" d="M159.36 93.78l0.26 4.32c0,10.75 8.01,18.53 18.76,18.53 6.57,0 11.57,-1.2 16.6,-5.02 1.18,-0.9 2.6,-2.39 3.59,-3.06l-1.18 7.13 15.67 0c0.39,-4.69 1.69,-10.91 2.51,-15.78 0.91,-5.38 1.62,-10.46 2.51,-15.78l4.38 -27.45c0.19,-1.1 0.99,-3.46 -0.14,-3.46l-15.2 0c-1.18,0 -1.49,5.6 -1.69,6.85 -0.4,2.38 -0.79,4.89 -1.19,7.36 -1.27,7.67 -2.56,22.36 -6.69,27.52 -7.54,9.41 -20.83,7.53 -20.83,-3.02l5.55 -38.7 -16.48 -0.01 -6.43 40.57z"/>
   <path class="fil0" d="M810.91 108.55zm-12.35 -4.28l12.35 4.28zm20.67 -37.02l0 3.37c-0.2,4.4 -1.11,8.95 -1.9,13.7 -0.75,4.47 -1.43,8.98 -2.18,13.5 -0.57,3.47 -2.03,10.29 -2.1,13.58l-15.49 -0.01 1 -7.12c-1.08,0.79 -2.4,2.71 -3.96,3.87 -9.4,7.01 -33.34,6.75 -32.62,-12.66 0.33,-8.95 5.97,-15.22 12.43,-18.21 7.33,-3.39 17.44,-2.69 27.95,-2.69 0.7,-8.38 -2.3,-12.08 -10.68,-12.13 -4.68,-0.02 -10.37,1.47 -13.98,3.62 -0.73,0.44 -3.05,1.95 -3.53,2.07l-3.87 -12.56c5.57,-3.74 14.72,-7.61 23.98,-7.61 10.51,0 18.79,2.44 22.34,9.27 1.7,3.27 2.43,6.6 2.61,10.01zm-33.02 32.74c-3.81,0 -7.84,-1.75 -7.84,-5.46l0 -1.19c0,-9.62 12.61,-8.07 22.33,-8.07 -1.31,5.61 -0.13,6.66 -3.97,10.51 -2.32,2.32 -5.99,4.21 -10.52,4.21z"/>
   <path class="fil0" d="M485.98 75.06l0 2.37c0,17.1 30.4,11.39 30.4,18.77 0,6.39 -8.24,6.84 -14.47,6.39 -6.34,-0.45 -11.33,-3.15 -15.46,-5.92l-7.47 13.01c1.42,2.01 7.4,4.16 10.11,5.02 17.28,5.47 43.44,-0.32 43.44,-21.83 0,-18.61 -30.4,-12.36 -30.4,-19.71l0 -0.95c0,-6.97 13.49,-7.01 20.05,-4.85 1.73,0.58 6.52,3.14 7.03,3.19l7.34 -12.95c-7.13,-4.11 -13.14,-5.34 -21.83,-5.34 -14.59,0 -28.74,8.73 -28.74,22.8z"/>
   <path class="fil0" d="M264.06 67.21l27.62 0.01c-0.2,0.75 -21.4,23.69 -25.11,27.62 -1.67,1.75 -3.67,3.65 -5.16,5.53 -0.83,1.06 -1.72,1.69 -2.54,2.69 -1.32,1.62 -1.44,1.02 -1.81,3.41 -0.44,2.93 -1.26,6.48 -1.48,9.21l49.87 -0.02c1.03,-0.25 0.84,-1.66 1.03,-3 0.45,-3.13 1.59,-8.23 1.59,-11l-29.22 0 20.26 -22.03c3.32,-3.27 6.99,-7.49 10.09,-11.04 1.64,-1.87 3.96,-3.06 4.35,-6.1 0.34,-2.59 1.41,-6.8 1.41,-9.28l-48.69 0 -2.21 14z"/>
   <path class="fil0" d="M321.07 67.21l27.62 0.01c-0.23,0.84 -18.06,20.1 -20.13,22.15 -1.77,1.75 -3.27,3.65 -4.99,5.47l-7.69 8.22c-1.33,1.62 -1.45,1.02 -1.81,3.41 -0.44,2.93 -1.26,6.48 -1.49,9.21l49.87 -0.02c1.03,-0.25 0.84,-1.66 1.04,-3 0.45,-3.13 1.59,-8.23 1.59,-11l-29.22 0c1.41,-2.1 7.63,-8.2 10.05,-11.09l10.2 -10.94c3.33,-3.27 7,-7.49 10.1,-11.04 1.64,-1.87 3.96,-3.06 4.35,-6.1 0.34,-2.59 1.4,-6.8 1.4,-9.28l-48.69 0 -2.2 14z"/>
   <path class="fil0" d="M463.17 60.81zm0 0zm0 0l1.05 -7.59 -15.77 -0.01 -9.89 62.44 16.54 0.03c0,-1.7 4.77,-30.44 4.98,-31.36 1.3,-5.48 2.79,-8.61 6.48,-11.81 4.22,-3.67 7.53,-3.54 14.43,-3.39l2.81 -16.87c-6.13,0.01 -12.52,1.7 -16.75,5.07 -1.34,1.06 -2.76,2.74 -3.88,3.49z"/>
   <path class="fil0" d="M743.69 115.68l16.63 0 9.36 -59.05c0.19,-1.1 1.03,-3.42 -0.1,-3.42l-15.2 0c-1.24,0 -1.57,5.85 -1.8,7.22l-8.89 55.25z"/>
   <path class="fil0" d="M228.02 115.68l16.63 0 9.37 -59.05c0.18,-1.1 1.02,-3.42 -0.11,-3.42l-15.2 0c-1.24,0 -1.57,5.85 -1.8,7.22 -0.46,2.78 -0.81,5.38 -1.25,8.01 -0.79,4.79 -7.27,46.47 -7.64,47.24z"/>
   <path class="fil0" d="M238.95 35.63l0 1.42c0,4.02 3.58,7.61 7.6,7.61l2.38 0c5.23,0 10.69,-5.89 10.69,-11.17l0 -2.14c0,-4.12 -4.21,-6.89 -9.27,-6.89 -5.81,0 -11.4,5.5 -11.4,11.17z"/>
   <path class="fil0" d="M754.62 35.63l0 1.42c0,4.02 3.58,7.61 7.6,7.61l2.37 0c5.24,0 10.69,-5.89 10.69,-11.17l0 -2.14c0,-4.12 -4.2,-6.89 -9.26,-6.89 -5.81,0 -11.4,5.5 -11.4,11.17z"/>
   <path class="fil0" d="M0 69.83l0 4.99c0,10.44 3.62,21.77 7.12,28.74 14.4,28.62 45.61,45.64 79.74,40.31 3.86,-0.6 7.28,-1.73 10.76,-2.54l8.73 9.8c2.26,2.45 6.15,8.25 10.28,8.25l2.61 0c5.17,0 10.21,-6.02 10.21,-11.4 0,-4.94 -1.69,-6.5 -4.59,-9.9 -2.11,-2.48 -4.14,-4.82 -6.29,-7.25l-18.62 -21.52c-2.08,-2.37 -4.29,-4.82 -6.26,-7.28 -2.02,-2.51 -4.2,-4.63 -6.18,-7.12 -7.28,-9.17 -21.24,-3.87 -21.24,7.46 0,4.68 4.21,8.81 6.71,11.35 1.53,1.56 2.75,3.22 4.28,4.74 0.97,0.98 3.53,3.8 4.21,4.82 -2.04,0.17 -5.2,0.66 -7.12,0.47 -14.74,0 -26.74,-6.66 -34.15,-14.07 -7.36,-7.36 -14.79,-19.12 -14.79,-33.67l0 -2.85c0,-25.18 22.37,-47.75 47.51,-47.75l3.33 0c32.92,0 59.28,37.44 42.35,71.34 -2.25,4.51 -5.06,6.83 -5.06,13.22 0,4.86 6.32,9.5 11.16,9.5l1.9 0c7.11,0 13.35,-11.99 15.84,-17.41 3.07,-6.7 6.49,-17.18 6.49,-26.76l0 -6.65c0,-9.25 -3.93,-21.87 -7.2,-27.96 -4.6,-8.54 -8.53,-13.54 -15.07,-20.08 -10.19,-10.21 -29.6,-20.61 -49.94,-20.61l-4.75 0c-20.2,0 -39.77,10.72 -49.94,20.84 -10.56,10.48 -22.03,28.17 -22.03,48.99z"/>
   <g style="clip-path:url(#id0)">
    <g>
     <rect class="fil1" x="-10.57" y="-16.63" width="225.27" height="237.32"/>
    </g>
   </g>
   <path class="fil2" d="M0 69.83l0 4.99c0,10.44 3.62,21.77 7.12,28.74 14.4,28.62 45.61,45.64 79.74,40.31 3.86,-0.6 7.28,-1.73 10.76,-2.54l8.73 9.8c2.26,2.45 6.15,8.25 10.28,8.25l2.61 0c5.17,0 10.21,-6.02 10.21,-11.4 0,-4.94 -1.69,-6.5 -4.59,-9.9 -2.11,-2.48 -4.14,-4.82 -6.29,-7.25l-18.62 -21.52c-2.08,-2.37 -4.29,-4.82 -6.26,-7.28 -2.02,-2.51 -4.2,-4.63 -6.18,-7.12 -7.28,-9.17 -21.24,-3.87 -21.24,7.46 0,4.68 4.21,8.81 6.71,11.35 1.53,1.56 2.75,3.22 4.28,4.74 0.97,0.98 3.53,3.8 4.21,4.82 -2.04,0.17 -5.2,0.66 -7.12,0.47 -14.74,0 -26.74,-6.66 -34.15,-14.07 -7.36,-7.36 -14.79,-19.12 -14.79,-33.67l0 -2.85c0,-25.18 22.37,-47.75 47.51,-47.75l3.33 0c32.92,0 59.28,37.44 42.35,71.34 -2.25,4.51 -5.06,6.83 -5.06,13.22 0,4.86 6.32,9.5 11.16,9.5l1.9 0c7.11,0 13.35,-11.99 15.84,-17.41 3.07,-6.7 6.49,-17.18 6.49,-26.76l0 -6.65c0,-9.25 -3.93,-21.87 -7.2,-27.96 -4.6,-8.54 -8.53,-13.54 -15.07,-20.08 -10.19,-10.21 -29.6,-20.61 -49.94,-20.61l-4.75 0c-20.2,0 -39.77,10.72 -49.94,20.84 -10.56,10.48 -22.03,28.17 -22.03,48.99z"/>
   <path class="fil0" d="M584.45 110.91l-19.38 0.01 10.21 -61.04 19.25 0 -10.08 61.03zm2.24 -69.58c-5.89,0 -10.93,-4.45 -10.93,-10.93 0,-5.87 4.86,-10.69 10.69,-10.69 5.78,0 10.93,5.04 10.93,10.69 0,5.74 -4.93,10.93 -10.69,10.93zm-17.1 -10.45c0,8.15 6.05,12.07 6.41,13.06 -1.89,-0.87 -5.61,1.79 -6.31,3.67 -0.87,2.33 -6.49,38.93 -7.61,44.88 -0.57,3.03 -0.99,6.11 -1.45,9.01 -0.4,2.51 -1.5,6.74 -1.5,9.19 0,3.69 2.67,6.17 6.42,6.17l18.52 0c3.76,0 5.62,-2.08 6.33,-5.31 0.69,-3.13 1.27,-6.85 1.71,-9.93 0.95,-6.7 2.39,-13.38 3.32,-19.95 0.95,-6.66 2.25,-13.4 3.34,-19.95 0.55,-3.33 1.06,-6.81 1.63,-10.01 0.58,-3.24 -0.98,-7.23 -3.97,-7.29 1.28,-1.91 6.88,-4.22 6.88,-14.49 0,-8.72 -7.45,-16.15 -16.15,-16.15l-1.19 0c-9.31,0 -16.38,7.7 -16.38,17.1z"/>
   <g style="clip-path:url(#id1)">
    <g>
     <rect class="fil3" x="547.93" y="0.98" width="90.57" height="156.94"/>
    </g>
   </g>
   <path class="fil2" d="M584.45 110.91l-19.38 0.01 10.21 -61.04 19.25 0 -10.08 61.03zm2.24 -69.58c-5.89,0 -10.93,-4.45 -10.93,-10.93 0,-5.87 4.86,-10.69 10.69,-10.69 5.78,0 10.93,5.04 10.93,10.69 0,5.74 -4.93,10.93 -10.69,10.93zm-17.1 -10.45c0,8.15 6.05,12.07 6.41,13.06 -1.89,-0.87 -5.61,1.79 -6.31,3.67 -0.87,2.33 -6.49,38.93 -7.61,44.88 -0.57,3.03 -0.99,6.11 -1.45,9.01 -0.4,2.51 -1.5,6.74 -1.5,9.19 0,3.69 2.67,6.17 6.42,6.17l18.52 0c3.76,0 5.62,-2.08 6.33,-5.31 0.69,-3.13 1.27,-6.85 1.71,-9.93 0.95,-6.7 2.39,-13.38 3.32,-19.95 0.95,-6.66 2.25,-13.4 3.34,-19.95 0.55,-3.33 1.06,-6.81 1.63,-10.01 0.58,-3.24 -0.98,-7.23 -3.97,-7.29 1.28,-1.91 6.88,-4.22 6.88,-14.49 0,-8.72 -7.45,-16.15 -16.15,-16.15l-1.19 0c-9.31,0 -16.38,7.7 -16.38,17.1z"/>
  </g>
 </g>
</svg>
