<svg xmlns="http://www.w3.org/2000/svg" xml:space="preserve" width="1346px" height="1027px" version="1.1" style="shape-rendering:geometricPrecision; text-rendering:geometricPrecision; image-rendering:optimizeQuality; fill-rule:evenodd; clip-rule:evenodd"
viewBox="0 0 2197.13 1676.03"
 xmlns:xlink="http://www.w3.org/1999/xlink"
 xmlns:xodm="http://www.corel.com/coreldraw/odm/2003">
 <defs>
  <style type="text/css">
   <![CDATA[
    .str0 {stroke:black;stroke-width:3.85;stroke-linecap:round;stroke-linejoin:round;stroke-miterlimit:22.9256}
    .str1 {stroke:white;stroke-width:3.85;stroke-linecap:round;stroke-linejoin:round;stroke-miterlimit:22.9256}
    .fil21 {fill:none}
    .fil37 {fill:aqua}
    .fil51 {fill:#0A0D13}
    .fil52 {fill:#131928}
    .fil53 {fill:#24343E}
    .fil54 {fill:#324F8F}
    .fil17 {fill:#3830C2}
    .fil11 {fill:#543ACA}
    .fil50 {fill:#6A94E0}
    .fil29 {fill:#703EB2}
    .fil9 {fill:#C9C8C9}
    .fil10 {fill:#CC63FB}
    .fil15 {fill:#E14A47}
    .fil38 {fill:#E6E6E6}
    .fil80 {fill:#F15052}
    .fil19 {fill:#F6A779}
    .fil6 {fill:#FAE8DC}
    .fil72 {fill:#FF6366}
    .fil13 {fill:#FFB079}
    .fil23 {fill:#FFC197}
    .fil61 {fill:white}
    .fil8 {fill:white}
    .fil62 {fill:url(#id0)}
    .fil47 {fill:url(#id1)}
    .fil45 {fill:url(#id2)}
    .fil1 {fill:url(#id3)}
    .fil40 {fill:url(#id4)}
    .fil65 {fill:url(#id5)}
    .fil73 {fill:url(#id6)}
    .fil35 {fill:url(#id7)}
    .fil70 {fill:url(#id8)}
    .fil20 {fill:url(#id9)}
    .fil67 {fill:url(#id10)}
    .fil64 {fill:url(#id11)}
    .fil76 {fill:url(#id12)}
    .fil78 {fill:url(#id13)}
    .fil2 {fill:url(#id14)}
    .fil60 {fill:url(#id15)}
    .fil5 {fill:url(#id16)}
    .fil3 {fill:url(#id17)}
    .fil14 {fill:url(#id18)}
    .fil68 {fill:url(#id19)}
    .fil57 {fill:url(#id20)}
    .fil7 {fill:url(#id21)}
    .fil56 {fill:url(#id22)}
    .fil69 {fill:url(#id23)}
    .fil58 {fill:url(#id24)}
    .fil25 {fill:url(#id25)}
    .fil44 {fill:url(#id26)}
    .fil74 {fill:url(#id27)}
    .fil71 {fill:url(#id28)}
    .fil46 {fill:url(#id29)}
    .fil48 {fill:url(#id30)}
    .fil75 {fill:url(#id31)}
    .fil66 {fill:url(#id32)}
    .fil49 {fill:url(#id33)}
    .fil39 {fill:url(#id34)}
    .fil77 {fill:url(#id35)}
    .fil27 {fill:url(#id36)}
    .fil33 {fill:url(#id37)}
    .fil41 {fill:url(#id38)}
    .fil30 {fill:url(#id39)}
    .fil32 {fill:url(#id40)}
    .fil59 {fill:url(#id41)}
    .fil79 {fill:url(#id42)}
    .fil28 {fill:url(#id43)}
    .fil16 {fill:url(#id44)}
    .fil12 {fill:url(#id45)}
    .fil55 {fill:url(#id46)}
    .fil34 {fill:url(#id47)}
    .fil18 {fill:url(#id48)}
    .fil42 {fill:url(#id49)}
    .fil24 {fill:url(#id50)}
    .fil36 {fill:url(#id51)}
    .fil22 {fill:url(#id52)}
    .fil26 {fill:url(#id53)}
    .fil43 {fill:url(#id54)}
    .fil31 {fill:url(#id55)}
    .fil81 {fill:url(#id56)}
    .fil4 {fill:url(#id57)}
    .fil63 {fill:url(#id58)}
    .fil0 {fill:url(#id59);fill-rule:nonzero}
   ]]>
  </style>
  <linearGradient id="id0" gradientUnits="userSpaceOnUse" x1="1490.89" y1="490.65" x2="1868.37" y2="490.65">
   <stop offset="0" style="stop-opacity:1; stop-color:#DD383D"/>
   <stop offset="1" style="stop-opacity:1; stop-color:#FF6366"/>
  </linearGradient>
  <linearGradient id="id1" gradientUnits="userSpaceOnUse" x1="880.55" y1="519.94" x2="968.34" y2="519.94">
   <stop offset="0" style="stop-opacity:1; stop-color:#3D30C0"/>
   <stop offset="1" style="stop-opacity:1; stop-color:#CC63FB"/>
  </linearGradient>
  <linearGradient id="id2" gradientUnits="userSpaceOnUse" x1="1871.24" y1="1268.88" x2="1977.15" y2="1268.88">
   <stop offset="0" style="stop-opacity:1; stop-color:#A353CD"/>
   <stop offset="1" style="stop-opacity:1; stop-color:#543ACA"/>
  </linearGradient>
  <linearGradient id="id3" gradientUnits="userSpaceOnUse" x1="233.57" y1="936.82" x2="2032.08" y2="936.82">
   <stop offset="0" style="stop-opacity:1; stop-color:#703EB2"/>
   <stop offset="1" style="stop-opacity:1; stop-color:#AA349B"/>
  </linearGradient>
  <linearGradient id="id4" gradientUnits="userSpaceOnUse" x1="991.14" y1="1483.69" x2="1089.72" y2="1483.69">
   <stop offset="0" style="stop-opacity:1; stop-color:#F6A779"/>
   <stop offset="1" style="stop-opacity:1; stop-color:#FFC197"/>
  </linearGradient>
  <linearGradient id="id5" gradientUnits="userSpaceOnUse" x1="1889.24" y1="625.55" x2="2073.13" y2="625.55">
   <stop offset="0" style="stop-opacity:1; stop-color:#AA349B"/>
   <stop offset="1" style="stop-opacity:1; stop-color:#703EB2"/>
  </linearGradient>
  <linearGradient id="id6" gradientUnits="userSpaceOnUse" x1="2061.34" y1="402.11" x2="2144.98" y2="402.11">
   <stop offset="0" style="stop-opacity:1; stop-color:#432909"/>
   <stop offset="1" style="stop-opacity:1; stop-color:#7D4A00"/>
  </linearGradient>
  <linearGradient id="id7" gradientUnits="userSpaceOnUse" x1="1542.28" y1="1249.68" x2="1754.68" y2="1249.68">
   <stop offset="0" style="stop-opacity:1; stop-color:#C9C8C9"/>
   <stop offset="1" style="stop-opacity:1; stop-color:whitesmoke"/>
  </linearGradient>
  <linearGradient id="id8" gradientUnits="userSpaceOnUse" x1="1995.75" y1="453.7" x2="2081.09" y2="453.7">
   <stop offset="0" style="stop-opacity:1; stop-color:#7D4A00"/>
   <stop offset="1" style="stop-opacity:1; stop-color:#432909"/>
  </linearGradient>
  <linearGradient id="id9" gradientUnits="userSpaceOnUse" xlink:href="#id4" x1="734.77" y1="320.29" x2="1074.74" y2="320.29">
  </linearGradient>
  <linearGradient id="id10" gradientUnits="userSpaceOnUse" x1="1785.81" y1="520.45" x2="1945.33" y2="520.45">
   <stop offset="0" style="stop-opacity:1; stop-color:#FFC197"/>
   <stop offset="1" style="stop-opacity:1; stop-color:#F6A779"/>
  </linearGradient>
  <linearGradient id="id11" gradientUnits="userSpaceOnUse" xlink:href="#id4" x1="1898.04" y1="731.43" x2="2045.51" y2="731.43">
  </linearGradient>
  <linearGradient id="id12" gradientUnits="userSpaceOnUse" x1="1825.3" y1="814.93" x2="2057.2" y2="814.93">
   <stop offset="0" style="stop-opacity:1; stop-color:#A353CD"/>
   <stop offset="1" style="stop-opacity:1; stop-color:#703EB2"/>
  </linearGradient>
  <linearGradient id="id13" gradientUnits="userSpaceOnUse" x1="1464.18" y1="687.01" x2="1643.53" y2="687.01">
   <stop offset="0" style="stop-opacity:1; stop-color:#CC63FB"/>
   <stop offset="1" style="stop-opacity:1; stop-color:#543ACA"/>
  </linearGradient>
  <linearGradient id="id14" gradientUnits="userSpaceOnUse" x1="475.06" y1="1357.9" x2="1789.44" y2="1357.1">
   <stop offset="0" style="stop-opacity:1; stop-color:#3830C2"/>
   <stop offset="1" style="stop-opacity:1; stop-color:#CC63FB"/>
  </linearGradient>
  <linearGradient id="id15" gradientUnits="userSpaceOnUse" xlink:href="#id10" x1="1582.65" y1="201.61" x2="1797.66" y2="201.61">
  </linearGradient>
  <linearGradient id="id16" gradientUnits="userSpaceOnUse" x1="286.46" y1="741.75" x2="488.97" y2="741.75">
   <stop offset="0" style="stop-opacity:1; stop-color:#F6A779"/>
   <stop offset="1" style="stop-opacity:1; stop-color:#F6A779"/>
  </linearGradient>
  <linearGradient id="id17" gradientUnits="userSpaceOnUse" x1="224.62" y1="962.67" x2="699.59" y2="962.67">
   <stop offset="0" style="stop-opacity:1; stop-color:#2B248B"/>
   <stop offset="1" style="stop-opacity:1; stop-color:#3E30C5"/>
  </linearGradient>
  <linearGradient id="id18" gradientUnits="userSpaceOnUse" xlink:href="#id4" x1="11.92" y1="398.15" x2="202.62" y2="398.15">
  </linearGradient>
  <linearGradient id="id19" gradientUnits="userSpaceOnUse" xlink:href="#id4" x1="1832.32" y1="484.35" x2="1989.23" y2="484.35">
  </linearGradient>
  <linearGradient id="id20" gradientUnits="userSpaceOnUse" xlink:href="#id4" x1="536.49" y1="918.63" x2="835.87" y2="918.63">
  </linearGradient>
  <linearGradient id="id21" gradientUnits="userSpaceOnUse" x1="436.27" y1="323.41" x2="689.85" y2="323.41">
   <stop offset="0" style="stop-opacity:1; stop-color:#F6A779"/>
   <stop offset="0.0588235" style="stop-opacity:1; stop-color:#FAB488"/>
   <stop offset="1" style="stop-opacity:1; stop-color:#FFC197"/>
  </linearGradient>
  <linearGradient id="id22" gradientUnits="userSpaceOnUse" xlink:href="#id14" x1="685.47" y1="554.44" x2="898.86" y2="554.44">
  </linearGradient>
  <linearGradient id="id23" gradientUnits="userSpaceOnUse" xlink:href="#id4" x1="1946.22" y1="481.83" x2="2051.77" y2="481.83">
  </linearGradient>
  <linearGradient id="id24" gradientUnits="userSpaceOnUse" x1="607.14" y1="1177.71" x2="1082.96" y2="1177.71">
   <stop offset="0" style="stop-opacity:1; stop-color:#15133A"/>
   <stop offset="1" style="stop-opacity:1; stop-color:#A353CD"/>
  </linearGradient>
  <linearGradient id="id25" gradientUnits="userSpaceOnUse" x1="1345.85" y1="455.16" x2="1908.58" y2="455.16">
   <stop offset="0" style="stop-opacity:1; stop-color:#AA349B"/>
   <stop offset="0.741176" style="stop-opacity:1; stop-color:#C3366C"/>
   <stop offset="1" style="stop-opacity:1; stop-color:#DD383D"/>
  </linearGradient>
  <linearGradient id="id26" gradientUnits="userSpaceOnUse" xlink:href="#id4" x1="1908.92" y1="1360.5" x2="1990.77" y2="1360.5">
  </linearGradient>
  <linearGradient id="id27" gradientUnits="userSpaceOnUse" xlink:href="#id8" x1="2051.01" y1="472.56" x2="2113.83" y2="472.56">
  </linearGradient>
  <linearGradient id="id28" gradientUnits="userSpaceOnUse" xlink:href="#id8" x1="1954.75" y1="413.13" x2="2040.42" y2="413.13">
  </linearGradient>
  <linearGradient id="id29" gradientUnits="userSpaceOnUse" xlink:href="#id1" x1="537.84" y1="739.87" x2="741.1" y2="739.87">
  </linearGradient>
  <linearGradient id="id30" gradientUnits="userSpaceOnUse" x1="661.67" y1="795.34" x2="1090.85" y2="795.34">
   <stop offset="0" style="stop-opacity:1; stop-color:#AA349B"/>
   <stop offset="0.819608" style="stop-opacity:1; stop-color:#C3366C"/>
   <stop offset="1" style="stop-opacity:1; stop-color:#DD383D"/>
  </linearGradient>
  <linearGradient id="id31" gradientUnits="userSpaceOnUse" xlink:href="#id4" x1="2013.85" y1="857.59" x2="2064.39" y2="857.59">
  </linearGradient>
  <linearGradient id="id32" gradientUnits="userSpaceOnUse" x1="1790.95" y1="431.19" x2="1863.18" y2="431.19">
   <stop offset="0" style="stop-opacity:1; stop-color:#63F1FA"/>
   <stop offset="1" style="stop-opacity:1; stop-color:#6386ED"/>
  </linearGradient>
  <linearGradient id="id33" gradientUnits="userSpaceOnUse" xlink:href="#id4" x1="858.41" y1="935.32" x2="1088.64" y2="935.32">
  </linearGradient>
  <linearGradient id="id34" gradientUnits="userSpaceOnUse" xlink:href="#id4" x1="1455.15" y1="956.13" x2="1659.02" y2="1061.57">
  </linearGradient>
  <linearGradient id="id35" gradientUnits="userSpaceOnUse" xlink:href="#id7" x1="2046.56" y1="864.42" x2="2111.33" y2="895.64">
  </linearGradient>
  <linearGradient id="id36" gradientUnits="userSpaceOnUse" xlink:href="#id8" x1="1277.03" y1="390.14" x2="1421.1" y2="560.8">
  </linearGradient>
  <linearGradient id="id37" gradientUnits="userSpaceOnUse" xlink:href="#id7" x1="1069.68" y1="1213.88" x2="1656.11" y2="1436.75">
  </linearGradient>
  <linearGradient id="id38" gradientUnits="userSpaceOnUse" x1="1082.77" y1="1587.25" x2="1162.97" y2="1617.99">
   <stop offset="0" style="stop-opacity:1; stop-color:#C9C8C9"/>
   <stop offset="1" style="stop-opacity:1; stop-color:white"/>
  </linearGradient>
  <linearGradient id="id39" gradientUnits="userSpaceOnUse" xlink:href="#id7" x1="1659.03" y1="1488.82" x2="1823.43" y2="1549.41">
  </linearGradient>
  <linearGradient id="id40" gradientUnits="userSpaceOnUse" x1="1187.32" y1="1517.47" x2="1402.51" y2="1604.38">
   <stop offset="0" style="stop-opacity:1; stop-color:#A353CD"/>
   <stop offset="0.219608" style="stop-opacity:1; stop-color:#7C47CC"/>
   <stop offset="1" style="stop-opacity:1; stop-color:#543ACA"/>
  </linearGradient>
  <linearGradient id="id41" gradientUnits="userSpaceOnUse" xlink:href="#id24" x1="792.42" y1="1217.89" x2="934.95" y2="1346.41">
  </linearGradient>
  <linearGradient id="id42" gradientUnits="userSpaceOnUse" x1="1487.21" y1="743.1" x2="1718.11" y2="827.51">
   <stop offset="0" style="stop-opacity:1; stop-color:#CC63FB"/>
   <stop offset="1" style="stop-opacity:1; stop-color:white"/>
  </linearGradient>
  <linearGradient id="id43" gradientUnits="userSpaceOnUse" x1="1056.29" y1="535.09" x2="1150.08" y2="692.66">
   <stop offset="0" style="stop-opacity:1; stop-color:#CC63FB"/>
   <stop offset="0.929412" style="stop-opacity:1; stop-color:#E5B1FD"/>
   <stop offset="1" style="stop-opacity:1; stop-color:white"/>
  </linearGradient>
  <linearGradient id="id44" gradientUnits="userSpaceOnUse" x1="338.02" y1="838.44" x2="572.39" y2="978.81">
   <stop offset="0" style="stop-opacity:1; stop-color:#3D30C0"/>
   <stop offset="0.858824" style="stop-opacity:1; stop-color:#8449DD"/>
   <stop offset="1" style="stop-opacity:1; stop-color:#CC63FB"/>
  </linearGradient>
  <linearGradient id="id45" gradientUnits="userSpaceOnUse" x1="1730.86" y1="1126.21" x2="2146.88" y2="1376.92">
   <stop offset="0" style="stop-opacity:1; stop-color:#2B248B"/>
   <stop offset="0.168627" style="stop-opacity:1; stop-color:#342AA8"/>
   <stop offset="1" style="stop-opacity:1; stop-color:#3E30C5"/>
  </linearGradient>
  <linearGradient id="id46" gradientUnits="userSpaceOnUse" x1="906.97" y1="542.64" x2="687.44" y2="526.25">
   <stop offset="0" style="stop-opacity:1; stop-color:#F6A779"/>
   <stop offset="0.54902" style="stop-opacity:1; stop-color:#FAD3BC"/>
   <stop offset="1" style="stop-opacity:1; stop-color:white"/>
  </linearGradient>
  <linearGradient id="id47" gradientUnits="userSpaceOnUse" x1="1666.55" y1="1526.31" x2="1893.68" y2="1610.46">
   <stop offset="0" style="stop-opacity:1; stop-color:#543ACA"/>
   <stop offset="0.211765" style="stop-opacity:1; stop-color:#854CDF"/>
   <stop offset="1" style="stop-opacity:1; stop-color:#B75EF5"/>
  </linearGradient>
  <linearGradient id="id48" gradientUnits="userSpaceOnUse" x1="31.24" y1="253.48" x2="38.45" y2="186.19">
   <stop offset="0" style="stop-opacity:1; stop-color:#6386ED"/>
   <stop offset="1" style="stop-opacity:1; stop-color:#63F1FA"/>
  </linearGradient>
  <linearGradient id="id49" gradientUnits="userSpaceOnUse" xlink:href="#id4" x1="796.64" y1="1492.93" x2="875.82" y2="1563.86">
  </linearGradient>
  <linearGradient id="id50" gradientUnits="userSpaceOnUse" xlink:href="#id4" x1="1253.87" y1="480.45" x2="1370.32" y2="564.33">
  </linearGradient>
  <linearGradient id="id51" gradientUnits="userSpaceOnUse" x1="1537.83" y1="1227.38" x2="1092.62" y2="984.38">
   <stop offset="0" style="stop-opacity:1; stop-color:#63F1FA"/>
   <stop offset="0.290196" style="stop-opacity:1; stop-color:#63BCF4"/>
   <stop offset="1" style="stop-opacity:1; stop-color:#6386ED"/>
  </linearGradient>
  <linearGradient id="id52" gradientUnits="userSpaceOnUse" x1="1023.05" y1="772.22" x2="1476.68" y2="1021.28">
   <stop offset="0" style="stop-opacity:1; stop-color:#543ACA"/>
   <stop offset="0.258824" style="stop-opacity:1; stop-color:#854CDF"/>
   <stop offset="1" style="stop-opacity:1; stop-color:#B75EF5"/>
  </linearGradient>
  <linearGradient id="id53" gradientUnits="userSpaceOnUse" xlink:href="#id0" x1="1368.98" y1="399.38" x2="1598.55" y2="415.29">
  </linearGradient>
  <linearGradient id="id54" gradientUnits="userSpaceOnUse" xlink:href="#id38" x1="785.62" y1="1635.56" x2="895.75" y2="1697.32">
  </linearGradient>
  <linearGradient id="id55" gradientUnits="userSpaceOnUse" x1="1168.31" y1="1451.59" x2="1428.57" y2="1478.98">
   <stop offset="0" style="stop-opacity:1; stop-color:#C9C8C9"/>
   <stop offset="0.0313725" style="stop-opacity:1; stop-color:#DFDEDF"/>
   <stop offset="1" style="stop-opacity:1; stop-color:whitesmoke"/>
  </linearGradient>
  <linearGradient id="id56" gradientUnits="userSpaceOnUse" xlink:href="#id14" x1="285.7" y1="921.77" x2="377.51" y2="869.37">
  </linearGradient>
  <linearGradient id="id57" gradientUnits="userSpaceOnUse" x1="476.8" y1="715.02" x2="442.53" y2="644.08">
   <stop offset="0" style="stop-opacity:1; stop-color:#4D4D4D"/>
   <stop offset="1" style="stop-opacity:1; stop-color:black"/>
  </linearGradient>
  <linearGradient id="id58" gradientUnits="userSpaceOnUse" x1="1590.12" y1="282.25" x2="1623.09" y2="278.3">
   <stop offset="0" style="stop-opacity:1; stop-color:#FF6366"/>
   <stop offset="1" style="stop-opacity:1; stop-color:#FF6366"/>
  </linearGradient>
  <linearGradient id="id59" gradientUnits="userSpaceOnUse" x1="1226.03" y1="328.9" x2="1231.68" y2="-123.21">
   <stop offset="0" style="stop-opacity:1; stop-color:#5E1E8F"/>
   <stop offset="1" style="stop-opacity:1; stop-color:#F00991"/>
  </linearGradient>
 </defs>
 <g id="Layer_x0020_1">
  <metadata id="CorelCorpID_0Corel-Layer"/>
  <path class="fil0" d="M327.26 0l1597.89 0c150.21,0 271.98,121.77 271.98,271.98l0 992.73c0,150.21 -121.77,271.99 -271.98,271.99l-1597.89 0c-150.22,0 -271.99,-121.78 -271.99,-271.99l0 -992.73c0,-150.21 121.77,-271.98 271.99,-271.98z"/>
  <path class="fil1" d="M473.35 595.31c0,0 151.09,-74.66 217.98,-64.98 66.88,9.68 695.41,-140.86 1088.35,34.23 0,0 110.18,141.04 85.88,319.19 0,0 126.53,-20.24 137.67,-14.17 0,0 88.06,105.28 -43.53,169.05 0,0 7.07,254.51 -140.72,337.64 0,0 -22.1,5.38 -29.54,-3.81l-1305.38 10.12c0,0 -55.06,31.29 -77.94,-8.32 -22.89,-39.62 -128.91,-212.67 -95.95,-314.27 0,0 -97.74,-66.81 -72.41,-123.81 0,0 226.02,-350.45 235.59,-340.87z"/>
  <polygon class="fil2" points="1777.59,1329.21 1789.44,1372.46 1597.87,1373.25 475.06,1384.77 490.04,1330.99 "/>
  <path class="fil3" d="M224.76 940.62c0,0 -6.04,122.7 62.67,128.67 0,0 23.83,240.3 123.4,305.02 0,0 48.79,62.73 90.61,-20.91l-20.45 -168.71 80.02 -412.2c0,0 5.57,-112.21 138.58,-172.7l-8.26 -69.46c0,0 -58.59,-19.08 -220.28,64.2l-228.84 184.12 -17.45 161.97z"/>
  <path class="fil4" d="M488.97 750.7c0,0 41.84,-47.71 4.09,-74.01 -37.75,-26.3 -60.82,-2.88 -60.82,-2.88 0,0 39.02,80.06 45.45,80.23 6.43,0.17 11.28,-3.34 11.28,-3.34z"/>
  <path class="fil5" d="M288.67 795.85c-19.23,-14.86 90.95,-132.63 173.33,-110.86 -7.12,10.13 23.19,64.6 26.97,65.71 0,0 -6.9,6.28 -24.52,13.3 -51.25,20.44 -166.59,49.16 -175.78,31.85z"/>
  <path class="fil6" d="M295.15 799.92c0,0 53.86,-4.3 84.99,-38.43 31.13,-34.12 94.84,-71.35 122.96,-69.31 3.25,0.23 3.46,-4.22 -2.53,-8.51 -21.51,-15.45 -100.67,-50.89 -100.67,-50.89l-104.75 167.14z"/>
  <path class="fil7" d="M437.3 428.08c0,0 105.01,-53.02 142.23,-120.82 37.21,-67.8 84.27,-159.36 84.27,-159.36 0,0 8.8,-3.51 8.21,8.21 0,0 1.76,42.21 -7.62,51.59 0,0 9.38,2.93 18.76,-8.21 0,0 11.14,-4.69 4.69,9.38 -6.45,14.07 -43.97,30.49 -49.83,75.63 -5.87,45.14 -59.8,130.74 -73.29,140.7 0,0 -65.76,69.29 -88.28,74.22 0,0 -47.73,-52.53 -39.14,-71.34z"/>
  <path class="fil8" d="M194.69 573.6c0,0 7.7,-33.73 2.4,-76.81l99.28 -41.21c0,0 14.48,50.52 51.38,34.95 0,0 49.59,-11.53 42.09,-55.64l47.46 -6.81c0,0 31.44,65.64 39.23,71.29 0,0 -30.05,39.3 -12.95,72.63l37.26 112.48c0,0 -63.8,-8.47 -85.94,25.23 -22.1,33.65 -103.61,83.64 -107.65,87.96 0,0 -60.35,12.62 -68.47,2.09 0,0 19.6,-101.52 -0.35,-139.87 0,0 -17.05,-54.11 -28.48,-65.54l-15.26 -20.75z"/>
  <path class="fil9" d="M1789.44 1372.46l58.75 44.55c0,0 33.05,50.22 -27.77,46.68 0,0 -69.12,-54.25 -76.89,-52.87l-4.24 -41.86 50.15 3.5z"/>
  <g id="_2624437471648">
   <ellipse class="fil10" cx="319.15" cy="978.11" rx="19.52" ry="20.1"/>
   <path class="fil10" d="M319.24 944.76l-4.99 -11.95c0,0 -5.52,-9.78 4.67,-11.87 0,0 6.8,0.13 6.63,7.48l-6.31 16.34z"/>
   <path class="fil10" d="M342.55 954.35l4.8 -12.03c0,0 2.89,-10.85 11.64,-5.22 0,0 4.77,4.86 -0.5,9.99l-15.94 7.26z"/>
   <path class="fil10" d="M352.49 977.94l11.92 -5.08c0,0 9.73,-5.6 11.9,4.57 0,0 -0.07,6.81 -7.43,6.69l-16.39 -6.18z"/>
   <path class="fil10" d="M339.1 1004.82l11.17 6.57c0,0 10.29,4.5 3.4,12.29 0,0 -5.52,3.98 -9.8,-2l-4.77 -16.86z"/>
   <path class="fil10" d="M318.92 1011.45l4.94 11.98c0,0 5.48,9.79 -4.72,11.85 0,0 -6.8,-0.16 -6.6,-7.52l6.38 -16.31z"/>
   <path class="fil10" d="M291.61 996.92l-7.02 10.88c0,0 -4.93,10.09 -12.43,2.87 0,0 -3.74,-5.68 2.41,-9.7l17.04 -4.05z"/>
   <path class="fil10" d="M285.8 977.94l-11.96 4.96c0,0 -9.79,5.49 -11.86,-4.7 0,0 0.14,-6.8 7.5,-6.62l16.32 6.36z"/>
   <path class="fil10" d="M294.16 956.02l-12.27 -4.15c0,0 -10.99,-2.31 -5.83,-11.34 0,0 4.59,-5.02 10,-0.04l8.1 15.53z"/>
  </g>
  <path class="fil11" d="M589.4 942.69c0,0 32.48,144.36 38.32,147.9 0,0 -21.87,14.51 -2.98,0.51 0,0 53.95,-100.17 113.41,-100.62l-51.86 -44.26 -88.96 -11.62 -7.93 8.09z"/>
  <path class="fil12" d="M1810.4 1049.96l45.69 -153.55c0,0 125.49,-111.42 177.08,19.9 0,0 14.07,103.17 -66.83,127.79 0,0 7.55,308.01 -158.98,338.21 -157.01,28.48 -8.62,-332.35 3.04,-332.35z"/>
  <path class="fil13" d="M317.33 432.12l-26.62 29.79c0,0 34.36,66.34 96.91,24.69 0,0 12.53,-30.74 5.28,-50.16l-15.16 -10.9c0,0 1.81,-8.23 7.08,-8.39 0,0 20.61,2.81 35.41,-23.75 0,0 24.91,-33.73 5.51,-70.21 0,0 -23.63,14.63 -41.72,9.48 0,0 -11.3,4.01 -8.03,11.78 0,0 1.64,10.53 -1.84,14.45 -3.49,3.91 -10.87,4.7 -10.62,-5.33 0,0 3.96,-9.53 3.28,-12.38 -0.68,-2.85 -34.26,-18.69 -33.29,19.11 0,0 8.41,19.97 11.41,20.6l-26.41 44.07 -1.19 7.15z"/>
  <path class="fil14" d="M195.91 496.19c0,0 -95.03,-7.87 -104.65,-78.99 0,0 -24.81,-98.93 -20.12,-125.41 0,0 13.41,-40.57 3.35,-49.95 0,0 5.03,-8.38 5.37,-14.08 0,0 -2.56,-11.25 -11.57,-3.58 0,0 -9.66,14.5 -7.66,22.33 0,0 -7.67,23.83 -12.84,25.17 0,0 -23.5,8.33 -29.16,-4.33 0,0 -7.34,-3.17 -6.67,5.83 0.67,9 8.32,18.57 14.69,16.22 6.37,-2.35 -9.07,115.3 14.38,142.28 0,0 45.75,158.34 153.66,141.92 0,0 17,-71.55 1.22,-77.41z"/>
  <path class="fil15" d="M459.02 1205.2c0,0 -11.23,41.71 -4.6,57.52 0,0 3.57,39.28 -8.16,53.06 0,0 -20.92,28.06 -35.72,25.51 -14.79,-2.55 -20.91,-35.21 -15.81,-51.53 0,0 7.14,-23.47 15.3,-31.63 0,0 14.92,-40.81 14.52,-63.83l34.47 10.9z"/>
  <path class="fil16" d="M329.14 799.22c0,0 129.49,-24.95 154.45,-47.21 13.64,-12.17 37.42,49.16 55.03,116.51 14.6,55.85 24.95,115.86 21.74,141.52 -7.08,56.63 -64.04,121.8 -65.21,145.26 0,0 -14.08,37.54 -34.02,55.13 0,0 -32.85,-1.17 -41.64,-14.66 0,0 2.34,-117.3 14.07,-133.72 0,0 16.18,-51.41 3.84,-77.64 0,0 -13.68,-24.63 -27.96,-24.63 0,0 2.51,-33.83 2.51,-41.99 0,-8.16 -86.62,-73.91 -144.8,-70.81l61.99 -47.76z"/>
  <path class="fil15" d="M407.6 910.8c0,-2.66 48.06,20.8 59.73,19.53 0,0 20.03,3.55 15.22,35.51 -4.82,31.96 -12.8,36.38 -1.71,51.02 0,0 5.32,37.71 0,42.15 0,0 -8.88,18.05 -24.13,7.49 -15.25,-10.56 -8.82,-30.24 -9.7,-36.65 0,0 4.05,-45.86 -15.04,-53.7l-26.97 -18.15 2.6 -47.2z"/>
  <path class="fil17" d="M313.98 794.25c0,0 -59.98,16.1 -75.2,5.51 0,0 -83.81,30.56 -89.88,50.12 0,0 -49.25,62.07 47.22,75.56 0,0 179.44,49.12 207.1,34.34l6.22 0 5.1 -49.48c0,0 -81.45,-70.14 -142.78,-64.8l59.49 -46.69c0,0 -5.93,-8.74 -17.27,-4.56z"/>
  <path class="fil18" d="M18.98 163.86l49.03 0c0,23.42 -2.49,92.41 -12.63,112.51l-47.25 -4.02 7.84 -78.34 3.01 -30.15z"/>
  <path class="fil8" d="M22.74 168l-10.06 100.57 40.12 3.41c8.41,-20.99 10.8,-78.51 11.04,-103.98l-41.1 0z"/>
  <path class="fil19" d="M15.14 198.04c0,0 -25.82,12.77 -4.3,18.61l-0.17 3.5 -1.17 5.84c0,0 -19.85,11.01 -2.17,24.19l1.91 0.19 5.9 -52.33z"/>
  <path class="fil20" d="M773.43 34.59c0,0 31.42,38.93 34.15,108.6 0,0 20.49,105.86 57.37,150.26 0,0 105.97,139.95 209.79,190.49l-46.67 123.08 -71.77 -54.93 -116.84 -155.47c0,0 -42.51,-82.29 -43.54,-102.03 0,0 -37.4,-129.85 -59.22,-147.51 0,0 -4.65,-15.55 0.49,-22.03 0,0 18.98,6.7 26.12,23.23 0,0 9.6,5.8 10.27,-8.27 0,0 5.22,-33.6 -0.21,-53.6 0,0 -5.44,-35.54 -6.61,-39.23 0,0 -3.66,-15.95 5.94,-13.32l0.73 0.73z"/>
  <path class="fil21 str0" d="M1402.47 542.25c0,0 -6.55,89.15 -90.66,81.59 0,0 -101.64,-8.35 -41.8,-102.25l20.19 0.04c0,0 -48.37,63.76 15.08,80.72 0,0 70.43,5.28 77.51,-60.91l19.68 0.81z"/>
  <path class="fil22" d="M1494.28 572.25c-31.13,206.55 132.49,366.73 21.22,471.11 -271.98,111.55 -263.8,-103.89 -350.87,-95.76 0,0 48.89,-242.36 -141.88,-330.46 0,0 30.65,-118.75 59,-147.1 0,0 143.9,48.64 194.55,42.54 38.15,6.26 193.77,30.61 217.98,59.67z"/>
  <polygon class="fil23" points="1410.43,489.71 1491.44,493.42 1497.93,444.93 1405.11,478.31 "/>
  <path class="fil24" d="M1284.16 361.79c0,0 -78.38,74.85 12.33,135.62 0,0 -7.05,39.63 -19.38,44.91 0,0 -22.01,86.31 63.41,51.96 0,0 30.34,-14.59 46.19,-61.26 0,0 -19.52,-6.91 -10.71,-36.85l-5.25 -100.43 -86.59 -33.95z"/>
  <path class="fil25" d="M1772.46 232.84c0,0 118.74,44.9 134.39,211.61 0,0 9.39,69.66 -15.65,103.31l-22.7 64.18c0,0 -5.74,91.92 -21.41,110.27 0,0 -7.17,3.08 -7.17,-8.27 0,0 -20.22,-141.22 -107.35,-168.45 0,0 -215.23,-64.89 -238.73,-54.48 0,0 3.59,-34.21 -1.1,-39.69 0,0 -65.96,-0.35 -85.68,31.78l-19.72 6.31 -41.49 -170.64 5.21 -34.98c0,0 94.39,-88.23 243.88,-96.06l177.52 45.11z"/>
  <path class="fil23" d="M1661.46 354.52l57.19 11.85c0,0 17.94,17.93 16.93,28.09l-69.38 -6.77 -4.74 -33.17z"/>
  <path class="fil26" d="M1412.27 325.4c0,0 123.68,-43.51 191,-6.72 0,0 63.41,20.35 67.32,35.23l1.79 40.13 -187.46 59.88 -108.93 42.26 -7.05 -140.94 43.33 -29.84z"/>
  <path class="fil27" d="M1324.32 382.18c0,0 -40.67,-3.27 -41.35,-19.2 0,0 -31.4,-63.4 46.33,-77.57 11.8,-2.15 15.53,0.51 21.87,4.38 11.12,6.79 29.44,16.9 41.5,21.8 0,0 36.49,13.32 16.79,35.9 0,0 -9.26,30.12 13.91,35.33 0,0 10.42,49.23 -16.22,59.66 0,0 -25.21,19.96 -31.16,53.7 0.28,0.28 -12.28,-39.22 -25.6,-45.02 0,0 11.58,-9.26 13.32,-14.47 0,0 -2.32,-26.65 -20.27,-12.17l-7.53 12.17c0,0 -12.62,3.52 -4.13,-13.47 0,0 8.49,-3.92 9.15,-7.62 0,0 -3.27,-14.37 -10.02,-9.36 0,0 -4.17,-18.11 -0.65,-21.55l-5.94 -2.51z"/>
  <path class="fil28" d="M1027.64 621.8c0,0 59.3,-107.72 64.12,-148.47 0,0 21.7,-0.73 24.25,7.61 0,0 -53.32,150.49 -66.46,159.7 0,0 -28.04,-7.89 -21.91,-18.84z"/>
  <path class="fil29" d="M1225.53 847.25c0,0 137.9,-147.17 268.84,-9.27 0,0 0.51,7.04 -4.03,3.63 -4.55,-3.41 -115.91,-75.67 -256.12,10.64 0,0 -14.89,7.45 -8.69,-5z"/>
  <path class="fil30" d="M1662.44 1519.28c0,0 -0.39,16.05 2.88,18.01 0,0 12.86,8.72 25.07,1.31l-2.83 -64.61c0,0 23.15,-34.35 46.89,-35.11 0,0 2.92,58.21 4.37,66 0,0 25.51,-32.68 15.42,-74.79 0,0 -4.03,-13.4 -21.48,-7.95 -17.45,5.45 -40.24,4.68 -63.01,35.69 0,0 -10.51,58.2 -7.31,61.45z"/>
  <path class="fil31" d="M1174.22 1402.85c3.01,0 120.89,50.72 120.89,50.72l-1.88 33.8c0,0 -102.95,14.3 -120.99,-31.53 0,0 -3.01,-11.95 -3.33,-24.52 -0.32,-12.86 2.08,-26.39 5.31,-28.47z"/>
  <path class="fil32" d="M1187.32 1408.97l74.49 5.62c0,0 -24.24,38.51 8.93,86.73 0,0 -8.73,67.07 -2.93,73.76 0,0 9.37,64.69 -49.08,48.19 0,0 -41.05,-19.13 -16.96,-62.47 0,0 17.94,-20.17 18.79,-51.8 0,0 -17.99,-71.4 -26.99,-87.09l-6.25 -12.94z"/>
  <path class="fil33" d="M1266.03 1023.34c0,0 95.18,86.9 243.94,19.05l43.91 23.82c0,0 -9.28,82.03 1.39,86.03 10.66,4 -101.11,8.65 -111.77,15.99l-37.34 -6.65c0,0 -120.66,20.66 -126.66,0 0,0 22.17,313.52 13.73,325.79 0,0 -57.5,-92 -124.19,-58.27 0,0 -26.03,-120.42 -45.96,-159.52 0,0 -44.47,-101.21 -42.94,-111.94 0,0 6.76,-102.11 -10.01,-120.41 0,0 22.87,-135.8 121.4,-89.62 0,0 55.07,9.66 74.5,75.73z"/>
  <path class="fil34" d="M1665.74 1481.76c0,0 30.96,-88.81 79.61,-60.23 0,0 -9.06,115.58 -4.92,118.42 0,0 31.29,18.64 49.71,43.21 0,0 9.22,73.72 -50.46,54.85 0,0 -35.98,-48.7 -29.39,-66.7 0,0 -14.74,-19.43 -17.51,-30.32 -2.76,-10.9 -27.04,-59.23 -27.04,-59.23z"/>
  <path class="fil35" d="M1638.88 979.43c0,0 90.24,-1.02 101.4,171.36 0,0 -7.84,265.81 14.4,279.61 0,0 -70.25,-0.41 -91.13,91.77 0,0 -121.42,-315.63 -117.97,-368.49 0,0 -19.16,-152.91 34.86,-165.79 0,0 39.11,-16.61 58.44,-8.46z"/>
  <path class="fil36" d="M1396.49 1133.86c0,0 42,-40.67 52.09,-29.78l20.49 34.12 31.7 55.38c0,0 -31.94,31.14 -48.59,37.99 -15.98,6.58 -50.36,-82.34 -55.69,-97.71z"/>
  <path class="fil8" d="M1401.83 1137.34c6.19,17.84 13.38,32.36 21.01,49.78 4.03,9.19 10.7,21.38 16.74,29.48 1.59,2.13 7,9.04 10.47,7.59 11.52,-4.79 33.36,-23.6 42.28,-35.1l-29.93 -49.16 -19.24 -33.38c-6.3,0.78 -34.97,20.05 -41.33,30.79z"/>
  <g id="_2624227680704">
   <rect class="fil37" transform="matrix(-0.460207 0.246688 -0.246688 -0.460207 1475.37 1187.1)" width="65.73" height="34.93" rx="7.38" ry="7.38"/>
   <rect class="fil38" transform="matrix(-0.460207 0.246688 -0.0801511 -0.149525 1462.75 1163.56)" width="65.73" height="34.93" rx="7.38" ry="7.38"/>
   <rect class="fil38" transform="matrix(-0.460207 0.246688 -0.0801511 -0.149525 1458.62 1155.85)" width="65.73" height="34.93" rx="7.38" ry="7.38"/>
   <rect class="fil38" transform="matrix(-0.460207 0.246688 -0.0801511 -0.149525 1454.73 1148.59)" width="65.73" height="34.93" rx="7.38" ry="7.38"/>
  </g>
  <path class="fil39" d="M1515.54 791.54c0,0 90.9,-49.89 103.49,-66.52 12.6,-16.63 64.2,157.46 -6.3,249.99 -70.5,92.54 -73.14,93.42 -73.14,93.42 0,0 -30.38,46.55 -31.38,76.78l-13.1 38.3c0,0 -11.95,-0.42 -16.52,-19.85 0,0 1.14,-8 -6.48,-5.34 0,0 -5.33,14.49 -12.95,9.91 -7.62,-4.57 2.66,-21.34 5.33,-22.86 0,0 31.53,-93.65 70.5,-140.12 0,0 31.78,-117.97 -24.56,-196.35 0,0 -2.46,-15.28 5.11,-17.36z"/>
  <path class="fil40" d="M991.58 1396.94c0,0 36.96,11.33 60.61,-6.53 0,0 9.24,136.62 33.35,157.15l4.18 29.33c0,0 -58.86,7.02 -98.58,-107.68 0,0 5.8,-36.12 0.44,-72.27z"/>
  <path class="fil41" d="M1088.53 1568.6c0,0 10.97,33.9 8.05,40.91 0,0 -2.92,18.97 -34.3,1.02 0,0 -20.39,-14.66 -24.06,-28.17 0,0 -2.89,-36.67 -37.05,-41.3 0,0 -29.36,-15 -25.11,-24.26 0,0 -3.49,-31.82 7.08,-45.62l8.14 -2.01c0,0 57.46,95.5 74.82,100.87 0,0 23.82,3.54 22.43,-1.44z"/>
  <path class="fil42" d="M836.65 1382.33c0,0 37.68,13.72 65.44,5.45 0,0 -56.38,178.7 -39.4,239.83 0,0 -36,31.25 -48.9,10.87 0,0 -25.14,-9.51 -16.99,-32.61 0,0 34.65,-118.19 39.85,-223.54z"/>
  <path class="fil43" d="M862.69 1627.61c0,0 -4.8,32.39 -32.61,46.49 0,0 -31.66,7.72 -41.9,-7.72 0,0 0.9,-45.96 8.05,-58.71l66.46 19.94z"/>
  <path class="fil44" d="M1967.89 1320.71c0,0 14.66,39.98 22.88,42.65 0,0 -25.55,9.66 -26.71,36.85 0,0 -59.44,1.95 -48.56,-14.37 0,0 -6,-24.34 -6.58,-33.08l58.97 -32.05z"/>
  <path class="fil45" d="M1953.19 1171.46c0,0 27.22,121.74 23.63,130.99 0,0 -26.2,47.77 -60.1,55.47 0,0 -12.85,9.77 -17.98,8.22l-27.5 -24.06c0,0 39.83,-21.65 81.95,-170.62z"/>
  <path class="fil9" d="M2003.97 1360.53c0,0 48.56,37.69 41.96,52.06 0,0 7.38,17.48 -22.54,21.76 -29.91,4.27 -69.54,-16.32 -69.54,-16.32l-43.51 -17.87c0,0 -11.03,-4.38 -2.33,-23.31 0,0 8.16,-5.05 8.16,-9.71 0,0 89.75,-5.06 87.8,-6.61z"/>
  <path class="fil46" d="M537.84 844.64c0,0 27.36,-183.47 107.07,-220.42l40.46 -24.43 36.85 13.85 18.88 76.21 -64.72 165.41 -14.69 24.69c0,0 -85.1,-39.97 -115.67,-18.4l-8.18 -16.91z"/>
  <path class="fil47" d="M901.32 418.7c0,0 49.89,-6.11 44.8,56.51 0,0 37.17,26.99 10.18,76.88 0,0 16.81,30.55 10.7,49.39l-36.66 19.86 -20.37 -5.6 -19.85 -26.99 -6 -26.19 0 -115.76 -3.57 -21.59 20.77 -6.51z"/>
  <path class="fil48" d="M900.86 580.96c0,0 110.11,32.62 139.34,99.23 0,0 61.57,99.74 48.94,217.5 0,0 -75.78,121.11 -120.64,70.81l-75.26 49.34c0.41,11.67 -74.85,-45.28 -103.24,-37.34 23.53,0 -45.64,-52.6 -51.44,-47.87 0,0 -78.64,-39.08 -76.87,-52.68 0,0 15.96,-168.45 47.88,-178.5l27.27 -87.81 -19.64 -42.39 -25.6 28.54 209.26 -18.83z"/>
  <path class="fil49" d="M1088.4 906.74c0,0 4.07,50.43 -21.19,71.81 0,0 -38.87,6.61 -47.03,2.34 0,0 -67.26,-24.77 -113.13,-21.27 0,0 -38.09,-7.38 -40.42,-19.04 0,0 -28.33,-40.43 20.21,-37.71 0,0 70.37,-2.44 73.87,4.94 0,0 -3.11,-10.1 0,-13.21 0,0 7.05,-9.53 11.31,-5.1l103.74 4.71 12.64 12.53z"/>
  <g id="_2624229711264">
   <path class="fil8" d="M846.15 822.4l0 0c22.8,0 41.67,17.67 43.61,39.99l0 -10.2 1.21 0c0.67,0 1.21,0.54 1.21,1.2l0 7.86c0,0.67 -0.54,1.21 -1.21,1.21l-1.2 0c0.09,1.11 0.15,2.23 0.16,3.36l1.04 0c0.67,0 1.21,0.55 1.21,1.21l0 7.86c0,0.67 -0.54,1.21 -1.21,1.21l-1.04 0 0 3.78 1.1 0c0.67,0 1.21,0.54 1.21,1.21l0 12.74c0,0.66 -0.54,1.21 -1.21,1.21l-1.1 0 0 58.75c0,24.08 -19.7,43.78 -43.78,43.78l0 0c-24.08,0 -43.79,-19.7 -43.79,-43.78l0 -64 -0.89 0c-0.66,0 -1.2,-0.54 -1.2,-1.21l0 -18.54c0,-0.66 0.54,-1.21 1.2,-1.21l0.89 0 0 -2.65c0,-24.08 19.71,-43.78 43.79,-43.78z"/>
   <rect class="fil50 str1" x="803.03" y="823.06" width="86.24" height="173.85" rx="14.94" ry="14.39"/>
   <ellipse class="fil51" cx="820.82" cy="842.44" rx="7.41" ry="7.76"/>
   <ellipse class="fil52" cx="820.82" cy="842.44" rx="6.64" ry="6.96"/>
   <ellipse class="fil53" cx="820.82" cy="842.44" rx="4.56" ry="4.78"/>
   <ellipse class="fil54" cx="820.82" cy="842.44" rx="2.7" ry="2.83"/>
   <ellipse class="fil50" cx="820.82" cy="842.44" rx="1.35" ry="1.41"/>
   <ellipse class="fil51" cx="820.82" cy="863.9" rx="7.41" ry="7.76"/>
   <ellipse class="fil52" cx="820.82" cy="863.9" rx="6.64" ry="6.96"/>
   <ellipse class="fil53" cx="820.82" cy="863.9" rx="4.56" ry="4.78"/>
   <ellipse class="fil54" cx="820.82" cy="863.9" rx="2.7" ry="2.83"/>
   <ellipse class="fil50" cx="820.82" cy="863.9" rx="1.35" ry="1.41"/>
   <ellipse class="fil51" cx="841.17" cy="852.98" rx="7.41" ry="7.76"/>
   <ellipse class="fil52" cx="841.17" cy="852.98" rx="6.64" ry="6.96"/>
   <ellipse class="fil53" cx="841.17" cy="852.98" rx="4.56" ry="4.78"/>
   <ellipse class="fil54" cx="841.17" cy="852.98" rx="2.7" ry="2.83"/>
   <ellipse class="fil50" cx="841.17" cy="852.98" rx="1.35" ry="1.41"/>
   <ellipse class="fil8" cx="835.96" cy="834.83" rx="2.7" ry="2.9"/>
  </g>
  <path class="fil55" d="M899.63 438.03c0,0 39.07,27.36 23.44,81.28 0,0 -19.54,39.85 -39.85,40.63 0,0 11.72,35.95 22.66,37.51 0,0 -3.12,96.12 -82.83,75.02l-25.01 -15.63 -33.6 -161.76 27.35 -50.01 35.16 -5.47c0,0 17.98,-10.94 28.92,-10.94 10.94,0 20.32,-1.57 26.57,-1.57 6.25,0 17.19,10.94 17.19,10.94z"/>
  <path class="fil56" d="M854.96 382.71c0,0 -25.47,20.1 -27.25,30.83 0,0 -26.81,-22.34 -51.39,-1.34 0,0 -21.44,17.42 -15.19,30.83 0,0 -22.43,22.94 -44.15,34.09 -28.73,14.75 -37.67,79.53 -27.39,85.19 0,0 -7.81,39.35 19.37,70.67 0,0 4.73,15.96 0,28.37 0,0 -3.55,47.27 20.68,52 0,0 30.73,41.96 64.42,-5.32l-0.6 -46.09c0,0 24.82,-8.28 33.1,-33.09 0,0 12.41,-30.14 -4.73,-44.91 0,0 -6.76,-25.92 7.63,-33.56 0,0 -13,-29.64 -21.19,-31.71 0,0 -7.23,-16.09 7.53,-21.06 0,0 18.76,4.81 25.37,-15.4 0,0 3.89,-19.82 0.39,-28.37 0,0 38.08,7.78 48.19,-14.76 0,0 21.75,-37.31 -1.95,-49.35 0,0 -19.93,-19.93 -32.84,-7.02z"/>
  <path class="fil57" d="M546.38 860.58c0,0 -43.31,56.39 51.32,84.78 0,0 93.28,42.58 157.15,38.19 0,0 43.6,-8.45 51.37,-16.9l29.07 -3.38c0,0 3.72,-6.76 -7.61,-7.6 0,0 -19.43,1.18 -20.44,-1.86 0,0 -17.92,-5.41 -10.82,-19.94l9.8 -5.75c0,0 1.02,-16.56 -9.29,-9.29 0,0 -22.48,9.29 -31.26,18.76l-18.96 -0.99c0,0 -80.06,-37.73 -84.94,-57.41 0,0 -94.78,-42.27 -115.39,-18.61z"/>
  <path class="fil58" d="M610.25 1079.12c0,0 -27.05,104.46 78.42,117.64 0,0 121.7,-8.45 157.87,-44.96 0,0 -39.66,199.17 -23.26,228.15 0,0 60.19,31.29 97.72,3.16l47.69 -172.01c0,0 1.88,187.97 16.42,190.01 0,0 56.07,14.6 83.27,-23.06l12.7 -214.25c0,0 17.5,-152.82 -54.24,-180.99 -71.74,-28.19 -124.03,-38.59 -160.87,-25.98 -164.2,26.66 -257.01,64.1 -255.72,122.29z"/>
  <path class="fil59" d="M854.42 1147.42c0,0 16.72,-110.8 94.87,-84.76 0,0 62.98,33.44 27.99,125.59l-9.17 38.6 -43.01 155.09c0,0 -58.23,30.52 -97.71,-3.17 -39.49,-33.68 27.03,-231.35 27.03,-231.35z"/>
  <g id="_2624565929392">
   <ellipse class="fil10" cx="1938.95" cy="954.73" rx="19.52" ry="20.1"/>
   <path class="fil10" d="M1939.04 921.38l-4.99 -11.95c0,0 -5.52,-9.78 4.67,-11.87 0,0 6.8,0.13 6.63,7.48l-6.31 16.34z"/>
   <path class="fil10" d="M1962.35 930.97l4.8 -12.03c0,0 2.9,-10.85 11.64,-5.21 0,0 4.77,4.85 -0.5,9.99l-15.94 7.25z"/>
   <path class="fil10" d="M1972.3 954.56l11.91 -5.08c0,0 9.74,-5.6 11.91,4.58 0,0 -0.08,6.8 -7.44,6.69l-16.38 -6.19z"/>
   <path class="fil10" d="M1958.91 981.45l11.16 6.56c0,0 10.29,4.5 3.4,12.29 0,0 -5.52,3.98 -9.8,-2l-4.76 -16.85z"/>
   <path class="fil10" d="M1938.73 988.07l4.93 11.98c0,0 5.49,9.8 -4.71,11.85 0,0 -6.8,-0.16 -6.6,-7.52l6.38 -16.31z"/>
   <path class="fil10" d="M1911.42 973.54l-7.03 10.88c0,0 -4.93,10.09 -12.43,2.87 0,0 -3.74,-5.67 2.42,-9.7l17.04 -4.05z"/>
   <path class="fil10" d="M1905.61 954.56l-11.97 4.96c0,0 -9.79,5.5 -11.86,-4.7 0,0 0.15,-6.8 7.5,-6.61l16.33 6.35z"/>
   <path class="fil10" d="M1913.97 932.64l-12.27 -4.15c0,0 -10.99,-2.3 -5.83,-11.34 0,0 4.59,-5.02 10,-0.04l8.1 15.53z"/>
  </g>
  <path class="fil60" d="M1598.3 187.57l67.36 -43.55 56.47 -36.74c0,0 72.8,-25.85 75.53,50.35 0,0 0.68,60.56 -29.94,72.13 0,0 -22.46,12.92 -29.26,6.8 0,0 -8.16,18.37 -0.68,21.09 0,0 -27.21,46.95 -55.11,42.19 0,0 -95.26,-0.68 -100.02,-55.12 0,0 0,-61.23 15.65,-57.15z"/>
  <path class="fil61" d="M1729.46 76.66c0,0 81.19,-1.01 79.17,79.16 0,0 -10.66,14.11 -16.45,4.91 0,0 15.89,-63.75 -60.76,-52.08 0,0 -10.15,41.69 1.52,43.63 0,0 -5.06,24.9 -19.06,27.63 0,0 0.77,-15.57 1.16,-22.96 0,0 -16.34,-17.9 -25.67,-3.11 0,0 -5.06,18.67 -1.95,19.84 0,0 -21.85,-22.95 -15.79,-41.63 0,0 7.23,-57.58 57.83,-55.39z"/>
  <path class="fil62" d="M1490.89 447.95c0,0 155.4,-96.33 292.9,-31.66l84.58 131.64 -31.01 31.39c0,0 -34.03,1.34 -38.24,6.22 -12.2,14.09 -26.81,-57.61 -307.68,-92.12l-0.55 -45.47z"/>
  <path class="fil63" d="M1575.43 189.23c0,0 -37.63,80.15 0,100.57 0,0 43.75,44.93 106.38,33.36 0,0 62.63,-34.72 71.48,-59.91l0.2 -27.02 -28.11 0.33c-31.02,48.43 -56.81,82.3 -134.25,26.5 -24.4,-17.59 19.28,-54.66 3.49,-75.31l-19.19 1.48z"/>
  <path class="fil64" d="M1899.61 703.48l145.9 24.52 -5.71 22.06c0,0 -109.93,-15.04 -130.19,9.32 0,0 -16.66,-16.67 -10,-55.9z"/>
  <path class="fil65" d="M2054.4 544.5c0,0 22.04,-2.03 18.31,51.21 0,0 -10.52,123.78 -21.71,134.97 0,0 -147.51,-13.9 -161.76,-28.15 0,0 9.3,-67.78 21.78,-76.28l38.6 -61.05 32.88 -44.77 30.18 4.4 41.72 19.67z"/>
  <path class="fil66" d="M1790.95 396.82c0,0 2.53,-12.53 36.17,-25.68l12.78 40.5 23.28 48.6c0,0 -23.39,26.27 -39.38,31.01l-32.85 -94.43z"/>
  <path class="fil67" d="M1945.34 569.48c0,0 -97.32,-24.9 -107.57,-75.2l-17.94 -25.44 13.61 -23.68 0 -11.84 -12.13 12.14c0,0 -14.51,-7.4 -14.21,-14.21 0.3,-6.81 0,-25.76 0,-25.76l-8.53 6.08c0,0 -15.65,26.93 -12.29,42.92 3.37,15.99 9.71,103.05 99.63,162.61l50.22 18.3c0,0 -4.28,-26.86 9.21,-65.92z"/>
  <path class="fil68" d="M1950.77 476.27c0,0 -77.37,-61.19 -93.54,-59.88l-24.91 0.44 13.55 14.42 12.24 12.24 7.64 7.65 -7.12 7.13 -6.02 0 8.3 9.12c0,0 37.85,-2.92 60.14,28.12l38.02 56.82 23.61 -23.61 6.55 -25.35 -17.92 -24.91 -20.54 -2.19z"/>
  <path class="fil69" d="M1966.3 428.61c0,0 -51.06,65.29 9.69,91.82l14.99 8.47 2.49 28.1 58.3 -9.87 -2.55 -30.22 -24.72 -100.63 -49.83 -9.62 -8.37 21.95z"/>
  <path class="fil70" d="M2039.67 390.45l41.42 28.73 0 7.79 -15.59 67.48c0,0 -6.29,22.97 -17.28,22.48 0,0 -19.79,-20.47 -25.88,-20.14 0,0 -18.63,-1.69 -9.15,-15.57 0,0 8.81,-0.34 10.84,-9.49 0,0 -2.71,-19.64 -13.55,-13.55l-6.77 6.78c0,0 -7.1,-0.02 -7.96,-7.96l4.44 -14.73 14.02 -47.08 25.46 -4.74z"/>
  <path class="fil71" d="M1955.82 408.64c0,0 16.74,-41.27 68.14,-25.7 0,0 15.96,1.98 16.46,9.89l-30.82 33.69 -16.93 20.32c0,0 -5.21,0.06 -2.8,-5.67l10.32 -11.96 0 -4.71c0,0 -4.84,-2.29 -9.17,4.2l-6.87 13.11c0,0 -3.82,3.44 -6.24,-2.29 0,0 -29.03,-24.57 -22.09,-30.88z"/>
  <path class="fil72" d="M2056.78 425.91c0,0 -20.92,17.82 -5.81,32.15 0,0 11.42,-10.07 10.84,-23.24l-5.03 -8.91z"/>
  <path class="fil73" d="M2061.34 405.49c0,0 31.42,-30.84 50.59,-20.96 0,0 24.6,7.93 31.77,19.56 0,0 5.23,11.04 -5.42,9.68 0,0 -14.53,-8.33 -25.38,-0.19 0,0 -6.78,9.29 -10.65,7.94 0,0 -14.91,-6.4 -16.46,-8.14l-4.7 5.8 -19.75 -13.69z"/>
  <path class="fil74" d="M2061.73 430.32c0,0 25.64,-12.71 43.47,5.8 0,0 16.95,27.2 3.35,40.57 0,0 -8.25,26.09 -0.45,29.44 0,0 7.58,11.81 -4.01,12.7 0,0 -25.64,3.13 -27.43,-13.15 0,0 -6.46,-23.64 -2.23,-32.33 0,0 -13.84,-22.98 -23.42,-20.75l5.46 -19.68 5.26 -2.6z"/>
  <path class="fil75" d="M2036.56 832.04l15.06 3.49c0,0 14.88,23.29 12.52,47.6 0,0 -34.97,-15.97 -50.3,-22.9 0,0 10.78,-26.27 22.72,-28.19z"/>
  <path class="fil76" d="M2020.05 867.27c0,0 -161.22,15.12 -171.95,21.15 0,0 -37.27,-42.21 -16.5,-86.9 7.59,-16.34 23.7,-21.9 28.22,-24.34l45.27 -24.4c0,0 130.79,-25.53 147.48,0 0,0 17.29,57.13 -14.9,80.37l-17.62 34.12z"/>
  <path class="fil77" d="M2046.96 832.44c0,0 23.58,-31.69 33.45,0 9.88,31.69 16.85,67.38 2.87,76.93 -13.98,9.54 -18.41,-21.14 -18.41,-21.14l-17.91 -55.79z"/>
  <path class="fil78" d="M1494.28 572.26c0,0 115.91,61.6 149.25,152.53l-134.7 76.97c0,0 -55.03,-48.48 -42.91,-160.62l28.36 -68.88z"/>
  <path class="fil79" d="M1486.96 779.19c0,0 122.89,-89.6 139.01,-89.6 0,0 9.32,15.53 12.34,22.59 0,0 -135.91,69.3 -142.37,85.79l-8.98 -18.78z"/>
  <path class="fil80" d="M307.68 428.1c0,0 -3.99,-31.26 -30.6,-46.55 -26.6,-15.3 -20.62,-77.16 19.29,-91.79 0,0 25.36,-1.34 28.77,-2.1 0,0 10.88,-13.89 14.68,-31.77 3.61,-16.96 46.87,-31.2 66.89,-17.37 3.79,2.62 3.43,5.38 3.59,6.35 0.3,1.81 0.8,3.98 1.49,5.93 1.13,3.14 1.11,3 4.04,4.34 2.38,1.08 6.12,2.55 10.02,3.11 6.78,0.99 6.04,2.39 7.51,7.04 4.98,15.79 15.27,53.1 -8.19,58.58 0,0 -21.7,15.66 -42.92,10.56 0,0 -3.45,5.42 -2.59,10.02 0,0 -3.66,14.62 -5.47,18.07 0,0 -14.92,6.37 -14.26,-5.8 0,0 7.17,-7.39 5.36,-11.01 0,1.57 -29.57,-28.14 -31.21,13.31 0,0 7.07,21.55 10.85,21.88l-26.26 45.67 -10.99 1.53z"/>
  <path class="fil81" d="M196.12 925.44c0,0 179.44,49.12 207.1,34.34l6.22 0 5.1 -49.48c0,0 -81.45,-70.14 -142.78,-64.8 -0.52,1.37 -182.02,34.32 -75.64,79.94z"/>
  <path class="fil9" d="M444.32 528.23c0,0 15.03,76.18 36.25,132.03 0,0 -57.47,-86.18 -36.25,-132.03z"/>
  <g id="_2624561327632">
   <rect class="fil37" transform="matrix(0.52147 0.0267266 -0.0267266 0.52147 25.7305 181.632)" width="65.73" height="34.93" rx="7.38" ry="7.38"/>
   <rect class="fil38" transform="matrix(0.52147 0.0267266 -0.00868371 0.16943 24.3631 208.31)" width="65.73" height="34.93" rx="7.38" ry="7.38"/>
   <rect class="fil38" transform="matrix(0.52147 0.0267266 -0.00868371 0.16943 23.9158 217.038)" width="65.73" height="34.93" rx="7.38" ry="7.38"/>
   <rect class="fil38" transform="matrix(0.52147 0.0267266 -0.00868371 0.16943 23.4943 225.263)" width="65.73" height="34.93" rx="7.38" ry="7.38"/>
  </g>
 </g>
</svg>
